<svg xmlns="http://www.w3.org/2000/svg" viewBox="0 0 168.03 89.87"><defs><style>.cls-1,.cls-3{fill:#fff}.cls-1,.cls-2{fill-rule:evenodd}.cls-2{fill:#212b47}</style></defs><g id="Слой_2" data-name="Слой 2"><g id="Слой_1-2" data-name="Слой 1"><path class="cls-1" d="M100.25 26l63.63-2.29 4.12-2.59-67.78 3.23-13.17.65v-.05l-.43-.2H86l-.28.16h-.48l-.08-.24-.54-.08.12.2c-.94-1-1.58-.66-2.51-.93l.08-.28 1.43-1.1-.07-.08 2.53-1.58.22-.14 1.73.2 12.11-6.7 22.07-12.29L112.24 0l-12 9.08-14.05 10.65-2.91 2.2-.13-.15-.89.56H81.44l-.3.16v.18l.22.12-.38.28h-.24L80.5 23l-.14-.12-.16-.34-.24.14v.48l.08.2-.34.16h-.37v-.72c0-.62-.92-.84-1.7-.74-.56.08-1 .32-1.06.7v.72l-.32-.12a1.64 1.64 0 0 0-.57-.18c-.6-.06-1.28.16-2.16.06L73 23l-.16-.08-.28-.22-.47-.16-.53.19-2.83-1.19.8-.26L26.75 2.05l-8.56 1.06 53.14 20.12.08.49.52.26.43.11.64.28h.06v.28l.44.3-.42.06-.12.32-.06.16h-1.13l-.4.08-.22.28h-.32l-.1-.06-.22-.14h-.46l-.32.32v.16l-6 .38-.73-.4L0 30l10.81 2.09 58.92-5.49.1.2.32.06h.42l.16-.1.18-.12h.36l.38.26h.55l.16-.2H73l.26.06.62-.08-.34.16a2.22 2.22 0 0 0-.54.26 4.07 4.07 0 0 0-1.63 2 6.12 6.12 0 0 0-.64-.1 5.8 5.8 0 0 0-1.44 0 3.17 3.17 0 0 0-2.51.3 3 3 0 0 0-1.36 1.94 4.42 4.42 0 0 0-.58 2.59l-.69.2-.54.18a11.58 11.58 0 0 0-2 1 9.89 9.89 0 0 0-2 1.76 13.8 13.8 0 0 0-.92 1.16c-.12.18-.22.34-.34.54l-.35-.09-.58 1.73a2.25 2.25 0 0 1-.11.22 12.27 12.27 0 0 0-1 2.43.55.55 0 0 0-.26 0 .89.89 0 0 0-.9.88.93.93 0 0 0 .64.86v.82H56a10.17 10.17 0 0 0 .46 2.37l.16.12a30 30 0 0 0 .61 4.55l-.67.78a2.12 2.12 0 0 0-2.34 2.07v.2a2.93 2.93 0 0 0 .64 1.69l1.18 1.58 1.22 1.28.19.22A3.34 3.34 0 0 0 58.62 63l.92.86 2 1.93 1.44 1.36-.34 1.25-.16.08-.94 3.34-.25 1.18v.36c-.29-1-.77-2-1.69-2.19a1.83 1.83 0 0 0-.92 0A2 2 0 0 0 57.29 73a6.44 6.44 0 0 0 0 1.52 8.19 8.19 0 0 0 .33 1.73 6.93 6.93 0 0 0 1 2.28 2.6 2.6 0 0 0 .92.78 1.84 1.84 0 0 0 1.34.09 1.55 1.55 0 0 0 .71-.43c.74-.84.48-2.5.38-3.61v-.14h.64l.94-.26.54-.16 2.69-.8 4-1.18 2.22-.7 1.48-.41.74-.46.48-.14.61-.18c.44.06.9.12 1.36.16s1.22.1 1.84.14a.78.78 0 0 1 .21 0h.78a40.2 40.2 0 0 0 8-.56c.42-.06.82-.14 1.22-.22.68-.14 1.33-.28 2-.46.48-.12 1-.28 1.44-.42l.32-.1.48.16.89.12 2.3.32 1 .14.84.12.54 1.4 1.54 4c-.36.16 0 .9.26.9h.67c.22 0 .22-.3.1-.46s-.18-.32-.36-.42l.3-5 .82.1.9.12c0 1.95.22 3.75 1.71 3.93a1.6 1.6 0 0 0 1.62-.68 4.51 4.51 0 0 0 .66-1.7 17.61 17.61 0 0 0 .36-3.79 2.91 2.91 0 0 0-1-2.39 1.81 1.81 0 0 0-.86-.26c-1.09 0-1.77.72-2.13 2.45l-.4-.85.28-.48.16-.62.32-3.87 2.63-.32.84-.1c.1 1 .22 2 .36 2.93l.66-3.05.23-1.14.22-1 .94-4.37h.14l.18.22.36.4.32-.06.82 4.61.16 1 .83 4.69a58.87 58.87 0 0 0 .78-6.62l-2.29-4.81h.44v.08H112.58l.08-.32-.08-.2-.16-.26v-.52l.31-.31v-.16l-.23-.26-.08-.24.08-.24v-.24l-.48-.08v.24h-.46l-.08-.94-.24-.32-.22-.48 1-14.58c-.36-.8-.78-1.23-1.2-1.23a.44.44 0 0 0-.16 0 .81.81 0 0 0-.38.21l.18 15.36h-.14l-.24.38-.16.8-.2.24.08.14v.44l-.4.06-.38-.16h-.39v.24l-.86.08-.36.32h-.86l-1.21-.68-.58.06-.08.14-1.32.12-.42.74-.1.15-.4.16a1 1 0 0 0 .12 1.06l-.82 2.81-.55 1.94-1.56-1.72-1.38-1.49-1-1.18a17.83 17.83 0 0 0-1.5-3.47l.56-.14.32.06h.7a5.72 5.72 0 0 0 1 0 3.09 3.09 0 0 0 2.26-5l-.88-1.23-.92-1.32v-.2c-.08-.16-.2-.32-.24-.44-.08-.34 0-.48-.22-.26l-1-1.25-1.38-1.62-.52-.16a3.93 3.93 0 0 0-1.77-1.44c-.1 0-.22-.05-.32-.07a2.57 2.57 0 0 0-.38-.08l-.24-2.26h-.24l.14 2.2a4 4 0 0 0-.72.06 3.26 3.26 0 0 0-2 1.25 3.21 3.21 0 0 0-.38.62h-1.14l-.08-.64v-.22l-.24-.08-1.06-.23.12-.36c.34-.59 1-2.59.84-2.89h-2.45a39.08 39.08 0 0 0-5-6.9l-.19-.18V28.38h.44l.42-.08.28-.12v-.28l-.24-.27v-1.36h.16v.34h.32l.86-.54 1.73-.2.16.12H85l.2-.24h.36l.36.16h1l.2-.16v-.12l6.37-.16-.3.78zM105 56.53l.53-.44.32-.3.16-.28.62-.5.5-.1.76-.16.16-.3h.66l.24.14h.57l.16.46-.24.32-1.79 2.51c.06 1.18.12 2.3.22 3.35l-.74.06-2.53.2zm-2.8 12.36a2.06 2.06 0 0 0 .7 0h.08l.18.26.08.1.24.1h.12v.16l-.12.08v.14l.06.14v.08l-.14-.08-.46-.12-.74-.2zm-.5 4l-.09 1.94-.06-4.07h.25zm0-4.09l.2.08v.66h-.16l-.17-.06v-.7zm-.51 1.9l.22 4.83-1.82-4.77-.1-.28h.1zm-3-4.17l.16.06 1.2 1 .74.58a2.81 2.81 0 0 0 .74.35v.84l-1.52-.4-.76-.18-.62-1.61v-.18l-.14-.42zm-1.11-.16h.4l.71 1.9.16.39h-.16l-1-.27-1.27-.39a4.38 4.38 0 0 0 1.16-1.68zm-3.61-17.84h.12l1.25 1.39.64.72.38.3.42.22-.12.12-.7.12-.62-.92a21.08 21.08 0 0 0-1.37-1.87v-.06zM73 28.68a2.78 2.78 0 0 1 1.9-.74 2.67 2.67 0 0 1 .8.12h.15v.14l-.08.06h-.11a3.17 3.17 0 0 0-.76-.1 3 3 0 0 0-1.94.72 2.71 2.71 0 0 0-.72.86 2.94 2.94 0 0 1 .76-1.06zm-2.69 6.46a.4.4 0 0 1 .42-.41c.78.06 1.53.16 2.23.26s1.18.19 1.66.29a.59.59 0 0 1 .42.54l.62 4.75v.32a.4.4 0 0 1 0 .22.51.51 0 0 1-.6.22h-.18l-1.88-.4c-.66-.12-1.33-.24-2-.38l-.28-.06a.62.62 0 0 1-.48-.6zm-.5 9.74a.69.69 0 0 1-.52.76c-.9.16-1.73.26-2.51.34s-1.74.12-2.47.16a.39.39 0 0 1-.16 0 .82.82 0 0 1-.54-.42.57.57 0 0 1-.08-.26 19.61 19.61 0 0 1-.1-3 1 1 0 0 1 .18-.49.92.92 0 0 1 .54-.36h.1a17.44 17.44 0 0 1 2.53-.4 10.81 10.81 0 0 1 2.27 0 .69.69 0 0 1 .64.68 30.09 30.09 0 0 0 .12 2.99zM65 35.48a.49.49 0 0 1 .32-.4c.5-.11 1-.21 1.5-.29l.56-.08c.56 0 1.17-.06 1.79-.06.36 0 .44.2.44.45l-.14 5c0 .14-.06.26-.28.26a16.2 16.2 0 0 0-2.37.06h-.42a15.41 15.41 0 0 0-2.19.4c-.1 0-.2 0-.18-.18l.18-.86zm-4 1.3c.2-.12.4-.22.6-.32a15 15 0 0 1 2-.86 3.89 3.89 0 0 1 .44-.16.18.18 0 0 1 .1 0c.12 0 .18.12.14.26l-.14.8-.54 2.77-.26 1.36a1.07 1.07 0 0 1-.56.76l-.34.14-.84.42-2 1-.2.05c-.48.28-.54 0-.46-.32l.62-2 1.1-3.51a.8.8 0 0 1 .34-.39zm-3.72 16.5H57l.26-.28.09-.12.16.4zm1.27-10.22a1.94 1.94 0 0 1-.46 1 6.26 6.26 0 0 0-.81 1.1.85.85 0 0 0-.1.14c-.06.12-.12.16-.08 0l.18-.92.85-4.53a2.23 2.23 0 0 1 .4-.9.4.4 0 0 1 .1-.15 6.76 6.76 0 0 1 .92-.94c.14-.12.3-.24.46-.36s.2 0 .16.14l-.62 2.09-.92 3.11zm3 7.64l-.2-.06a3.94 3.94 0 0 1-1-.54 1.72 1.72 0 0 1-.82-.89 11.24 11.24 0 0 1-.64-2 9.86 9.86 0 0 1-.28-1.85v-.52a1.31 1.31 0 0 1 .5-1 2.32 2.32 0 0 1 .42-.32 10.22 10.22 0 0 1 2-1.06l.82-.31c.14 0 .36-.06.34.22a24.9 24.9 0 0 0 .31 4.36 23.53 23.53 0 0 0 .62 3c0 .19.1.37.16.59a.58.58 0 0 1-.16.6.71.71 0 0 1-.38.1 5.66 5.66 0 0 1-1.63-.32zm9.12 19.37l-4 1.86-2.63 1.23-.54.26-1 .46-.16-.06-.68.28.14-.38.32-.26 1.34-4.21.1-.34-.08-.1.28-1a3.48 3.48 0 0 0 .24.28 4 4 0 0 0 2.63 1.31 10.29 10.29 0 0 0 2.69-.08l.9-.2a3.14 3.14 0 0 0 .36.62A1.26 1.26 0 0 0 71 70zm.08-18.85h-.08c-1.34.2-2.65.34-4 .42-.4 0-.8.06-1.2.08a.72.72 0 0 1-.66-.38 15.69 15.69 0 0 1-.66-2.34 15.93 15.93 0 0 1-.34-1.64.4.4 0 0 1 .34-.52c.83-.06 1.73-.12 2.61-.22s1.69-.18 2.47-.3c.26 0 .56 0 .62.28a21.93 21.93 0 0 0 .86 3.33c.1.3.22.58.32.86s.08.39-.22.43zm4.89-3a.91.91 0 0 1-.24.24 8.4 8.4 0 0 1-2.4 1.42l-.28.08a1.08 1.08 0 0 1-1.33-.43 12 12 0 0 1-.66-2.66c-.08-.44-.14-.85-.18-1.27a25.4 25.4 0 0 1-.18-3.89c0-.3.14-.4.36-.42h.16a20.46 20.46 0 0 1 2.11.22 13.59 13.59 0 0 1 2.2.54 1 1 0 0 1 .5.36 1.27 1.27 0 0 1 .25.71c0 1.48.16 2.76.14 4a2.07 2.07 0 0 1-.39 1.11zm2-5.86l-.9-.46a.77.77 0 0 1-.38-.62l-.69-5.15v-.28a.28.28 0 0 1 0-.22.21.21 0 0 1 .25-.06 15.8 15.8 0 0 1 1.72.56 8.8 8.8 0 0 1 1.3.7.73.73 0 0 1 .24.42c.1.62.22 1.22.3 1.81 0 .36.11.72.17 1.08a.59.59 0 0 0-.17.1.87.87 0 0 0-.4.74.9.9 0 0 0 .4.74.53.53 0 0 0 .17.08l-.17.08-1.6.61zm.46.25l1.38-.53.17-.06-.17.18-.7.81c-.17-.13-.41-.25-.65-.39zm.84.5l.54-.62.07-.09-.07.15-.32.68zm1.09.26a.26.26 0 0 1-.22.18h-.12l-.16-.06a.44.44 0 0 0-.16-.1l.16-.36.21-.42.24-.49.12.83a.89.89 0 0 1-.04.43zm.44-6.24a11.93 11.93 0 0 1 2 1 20.16 20.16 0 0 1 1.21 3.59 22.68 22.68 0 0 1 .25 3.28 9.9 9.9 0 0 0 .07 1c-1.09-.74-2.07-1-3-1.66a16.91 16.91 0 0 1-.42-2.77.87.87 0 0 0-.12-1.34c-.06-.56-.1-1.1-.12-1.55s-.18-1.06-.24-1.6a.09.09 0 0 1 .08-.08zm.53-9.5c0 .06-.1.11-.14.17s0 .14 0 .14-.18-.1-.28-.14-.36 0-.42-.09a3.36 3.36 0 0 1 0-1.34c0-.08.1-.16.18-.14s.16.12.26.16l.24.12h.12v.64a2.44 2.44 0 0 0 .14.34.09.09 0 0 1-.1.14z"/><path class="cls-2" d="M91.15 50.18A19.85 19.85 0 1 1 71.3 70a19.84 19.84 0 0 1 19.85-19.82z"/><path class="cls-3" d="M78.51 84.85a1.81 1.81 0 0 1-1.26-.5 1.85 1.85 0 0 1-.54-1.75l1.42-6.2A14.59 14.59 0 1 1 85 83l-6 1.78a1.86 1.86 0 0 1-.49.07zm6.64-5.64a1.75 1.75 0 0 1 .86.22 11.05 11.05 0 0 0 5.14 1.28 10.93 10.93 0 1 0-9.47-5.49 1.87 1.87 0 0 1 .2 1.33l-.88 3.8 3.62-1.07a1.81 1.81 0 0 1 .53-.07z"/><path class="cls-3" d="M89.08 75.36a1.42 1.42 0 0 1-.93-.35l-4.47-3.92a1.43 1.43 0 0 1-.13-2 1.41 1.41 0 0 1 2-.13L89 72l7.3-7.83a1.42 1.42 0 1 1 2.07 1.94l-8.23 8.83a1.42 1.42 0 0 1-1.06.42z"/></g></g></svg>