<svg xmlns="http://www.w3.org/2000/svg" width="386" height="101" viewBox="0 0 386 101"><g><g><g><path fill="#fff" d="M205.56 95.619c-7.84.101-13.534-3.61-17.83-8.352h6.443c3.116 2.06 6.553 3.813 10.637 3.917h.75zm0-4.435c3.653-.104 6.551-.928 9.028-2.474 3.112-1.443 2.79-4.435-.435-5.258h-8.592v-7.115h11.388c2.899 0 3.972 2.475 4.62 5.052 2.47-5.257 1.822-10.413-3.763-10.413l-12.245.104v-7.423h40.393c1.29-.207 2.47-.62 3.438-1.237-2.148 5.257-4.515 8.144-6.88 8.453h-14.394c.433 1.96.433 3.815.108 5.67h10.529c1.396-.206 2.9-.411 4.298-1.133-2.15 5.257-4.19 8.145-6.017 8.042H225.97c-4.617 8.352-11.382 11.856-19.658 12.167h-.751v-4.435zm-1.18-34.539c-4.19 0-7.091 1.032-9.239 3.093-1.828 1.754.214 3.919 2.042 3.919h8.378v7.423h-10.42c-3.115 0-4.726-2.166-5.48-5.156-2.362 5.362-2.038 10.413 4.729 10.413h11.17v7.115h-31.045c-1.93.103-3.975-2.68-6.123-8.249 1.288.722 2.688 1.34 4.084 1.444l10.849-.104c-.537-1.855-.537-3.71-.218-5.67h-15.034c-2.256-.72-4.403-3.815-6.34-8.66a12.266 12.266 0 0 0 3.762 1.444h19.868c4.835-7.012 10.96-11.857 20.198-11.651v4.64zm11.816 3.505h6.767c-3.438-4.02-8.055-7.217-14.932-7.938-.86-.104-1.61-.206-2.47-.206v4.64c3.866 0 7.413 1.031 10.635 3.504z"/></g><g><path fill="#fff" d="M262.282 70.873h-.109c-.645-.309-1.073-.72-1.396-1.03-.214-.412-.323-.723-.214-1.134.109-.412.322-.724.86-.929.428-.206 1.178-.308 2.255-.308h1.825v1.959h-1.61l1.61.721 9.778 4.33h.105c1.288.516 2.365 1.34 3.116 2.475.645.927.86 2.164.754 3.607-.326 1.959-1.288 3.506-2.901 4.64-1.612 1.03-3.759 1.65-6.123 1.65h-17.297V79.43H266.363l-.86-.309-9.347-4.02-.102-.103c-1.4-.722-2.582-1.547-3.335-2.476-.752-1.133-1.18-2.37-.857-3.813.32-1.858 1.073-3.404 2.365-4.538 1.287-1.032 3.006-1.751 4.939-2.062h6.337v1.96l-6.123.102a6.504 6.504 0 0 0-3.76 1.546c-.857.723-1.502 1.857-1.717 3.3-.216.927 0 1.65.534 2.27.54.72 1.4 1.442 2.58 1.959l8.486 3.71 1.827.825h.106c.754.412 1.505.824 1.828 1.237.217.308.428.619.32 1.032 0 .41-.214.824-.748 1.03-.327.206-.969.412-1.828.412h-12.03v3.403H270.231c1.933 0 3.652-.516 4.94-1.34 1.074-.722 1.827-1.856 1.936-3.3.211-.929 0-1.65-.434-2.268-.428-.721-1.288-1.34-2.256-1.752l-8.915-3.918zm12.89-3.401h-9.669v1.959h11.71v-7.322h-11.71v1.96h9.67z"/></g><g><path fill="#fff" d="M321.901 78.09l-2.042 1.443h2.362v1.96h-4.512c-.534 0-.962-.207-1.18-.721-.214-.62-.105-1.032.11-1.342l3.974-2.887 1.608-1.237v2.475zm-11.174-8.558V62.11h11.494v2.062h-9.452v3.3h9.452v3.505l-.32.31-11.815 8.968-.107.104h-.111c-.429.516-.643 1.031-.643 1.548 0 .825.323 1.546.86 2.164.216.31.536.517.859.62.214.205.537.205.86.205h10.417v2.061h-10.417c-.646 0-1.288-.205-1.825-.515-.54-.206-1.077-.617-1.505-1.134-.86-.928-1.397-2.166-1.397-3.401 0-1.032.537-2.166 1.503-3.094l.431-.104h-.218l11.82-8.97.32-.206zm11.494-5.361h5.91c.969 0 1.72.31 2.362.723.537.515.86 1.03.86 1.649v13.609l-5.045 4.744h-4.087v2.06h4.515l.75-.308 5.695-5.464.322-.207v-.413l-.108-14.022c0-1.237-.537-2.371-1.614-3.092a5.632 5.632 0 0 0-3.65-1.34h-5.91zm0 3.3c1.076.103 1.61.31 1.936.826.323.72 0 1.339-1.073 2.06l-.863.619v-1.752c.108.103.108.103 0 0zm0 12.062h1.827V76.44l-1.827 1.341v-2.475l2.259-1.648 1.613-1.238v9.072h-3.872z"/></g><g><path fill="#fff" d="M343.92 69.017v3.505c.755-.619 1.505-1.133 2.15-1.752.215-.104.323-.206.432-.309.646-.517 1.18-.929 1.72-1.444h-2.151v-1.959h3.33c.753 0 1.399.103 1.719.31.75.617.75 1.34-.32 2.164-1.077.93-1.936 1.65-2.904 2.476-.643.412-1.183.927-1.825 1.339-.646.62-1.396 1.238-2.042 1.754l2.042 2.062v2.887l-2.15-2.166v9.072h-9.235V68.088l.32-.308 5.693-5.36.646-.31h14.178c1.507 0 2.582.413 3.438.926.217.103.325.207.537.312v5.876a3.146 3.146 0 0 0 1.182-2.063c.217-.721.217-1.444-.106-2.165a4.003 4.003 0 0 0-1.076-1.648v5.876l-6.982 6.082 6.982 7.425v4.225h-6.66l-.213-.308-6.554-6.598v-2.887l7.733 7.732h4.943l-8.487-8.97-.75-.722.859-.722 7.736-6.7v-.104c.322-.205.533-.516.642-.928.106-.412 0-.721-.109-1.133-.105-.31-.428-.62-.75-.93-.538-.308-1.289-.515-2.365-.515h-13.75l-5.048 4.743v15.981h5.157V67.058h4.189v1.96zm15.578.207zm0 17.732zm3.977 0l-1.612-1.649-2.365-2.576v4.225z"/></g><g><path fill="#fff" d="M367.234 74.998v-.517c.108-1.96.965-3.815 2.256-5.05.645-.722 1.61-1.238 2.575-1.548.754-.206 1.505-.411 2.473-.411h3.119l3.435-3.301h-9.027c-2.256.207-4.186.928-5.905 1.958-1.933 1.343-3.438 3.198-4.084 5.26-.213.619-.428 1.34-.428 1.958-.109.722-.109 1.548-.109 2.371 0 .517.11.93.11 1.341.105.412.32 1.237.427 1.649 1.186 2.269 1.937 3.507 3.547 4.64 1.397.825 3.327 1.342 6.442 1.547v1.96c-3.65-.207-5.905-.825-7.624-1.857-1.936-1.546-2.578-2.267-3.867-4.846-.43-.927-.753-1.65-.968-2.681 0-.617-.108-1.134-.108-1.65v-.103c-.11-.823 0-1.75.108-2.576 0-.825.215-1.548.432-2.372a12.122 12.122 0 0 1 5.049-6.288c1.932-1.239 4.297-2.062 6.978-2.27h1.185l10.312-.103h2.47l-1.716 1.753-5.589 5.362-.213.308h-3.976c-.968 0-1.825.104-2.473.516a4.126 4.126 0 0 0-1.179.825 6.273 6.273 0 0 0-1.61 3.712v.413c0 1.75 1.073 3.298 2.79 4.02v2.166c-3.007-.929-4.832-3.3-4.832-6.186zm4.831 6.186c.86.205 1.72.308 2.579.308h7.95l.108 3.506-5.156-.103h-5.48v1.96c.753.101 1.613.101 2.472.101h10.203v-7.423h-10.097a6.763 6.763 0 0 1-2.579-.515z"/></g><g/><g><path fill="#fff" d="M75.258 86.441h-.106a8.075 8.075 0 0 1-1.505-1.134c-.75-.928-1.287-2.166-1.287-3.401 0-1.134.428-2.27 1.396-3.198l.428-.103h-.214l1.288-1.031v2.578l-.106.103c-.108 0-.108.103-.108.103-.429.414-.646.928-.646 1.548 0 .722.323 1.442.86 2.061v.103zm12.139-8.763l-2.361 1.752h4.293v-3.093l-1.932 1.34v-2.474l2.364-1.752 1.719-1.134v9.175h-9.454l-.642-1.855 6.013-4.434zm-10.42 9.177c-.537 0-1.182-.104-1.72-.414v-2.37c.324.204.538.411.863.62.215.102.538.204.857.204h10.42v1.96zm9.132-17.424H75.903v-7.322h11.494v1.96h-9.452v3.402h9.452v3.505l-.323.207-11.816 8.969v-2.578l10.529-7.938zm1.288-5.363h5.908c.968 0 1.719.31 2.364.826.537.411.86 1.03.86 1.546v13.61l-5.05 4.846h-4.082v1.959h4.51l.755-.309 5.692-5.362.322-.31V66.44c0-1.135-.645-2.27-1.72-3.092-.964-.723-2.252-1.239-3.651-1.239h-5.908zm0 5.052c.108.104.108.104 0 0v-1.648c1.073 0 1.61.205 1.932.721.324.72 0 1.34-1.073 2.061l-.86.722z"/></g><g><path fill="#fff" d="M49.155 84.895h5.157V67.471h4.94v1.96h-2.898v17.424h-9.238V62.109h12.136v1.96H49.155V80.46zm12.89-15.464v17.424h9.346V62.109H59.252v1.96H69.35v20.826h-5.154V67.471h-4.944v1.96z"/></g><g><path fill="#fff" d="M145.836 74.07l-.645-.62.645-.721 2.899-2.886v2.886l-.751.722.75.721v2.99zm-2.687 2.679l5.586 5.982v2.99l-7.088-7.63c-1.613-1.65-2.256-3.093-2.256-4.64 0-1.548.643-2.887 1.93-4.227 1.186-1.136 2.365-2.27 3.438-3.403l3.548-3.401.322-.31h.106v2.784c-.86.722-1.61 1.546-2.47 2.37l-3.435 3.3c-.863.927-1.4 1.958-1.4 2.887 0 1.03.537 2.062 1.719 3.297zm5.586-6.906l5.588-5.775h-4.835c-.216.207-.536.515-.753.826v-2.785h10.315l-1.612 1.65-8.703 8.97zm0 12.888zm1.933 2.164h5.265l-7.198-7.732v-2.99l10.315 11.031 1.61 1.65h-10.957l-.323-.308-.645-.825v-2.99z"/></g><g><path fill="#fff" d="M133.052 64.068v20.827h2.578v1.96h-4.62V62.109h4.62v1.96zm7.199 22.787V62.109h-4.62v1.96h2.575v20.826h-2.576v1.96z"/></g><g><path fill="#fff" d="M114.9 69.43h-5.587v6.185c1.825-1.752 3.65-3.503 5.586-5.258.32-.31.642-.618.965-.926h-.965zm0 3.712c-1.938 1.856-3.976 3.712-5.912 5.566l-1.825 1.65V67.471h9.56c.86 0 1.505.206 1.828.826.32.617.106 1.339-.754 2.164-.323.309-.75.619-1.074.928-.645.619-1.182 1.133-1.824 1.753zm0 7.939l-5.587 5.154v5.877l-.325.31-7.302 6.701-1.72 1.546V67.985l.32-.205 5.589-5.466.751-.205h10.097v1.96h-9.669l-5.048 4.742v27.218l5.157-4.74v-5.88l.322-.308L114.9 78.4v2.68zm1.823-17.013h8.059c.751 0 1.288 0 1.61.103.32.104.537.207.86.31.32.413.537.824.537 1.135 0 .412-.217.926-.86 1.649l-.108.103v.104l-10.098 9.175v2.783l11.494-10.62v.104c.109-.103.217-.205.217-.308l.106-.104c.968-1.03 1.29-1.96 1.29-2.886 0-.93-.43-1.754-1.076-2.477l-.32-.205a10.21 10.21 0 0 0-1.505-.721c-.537-.104-1.181-.104-2.147-.104h-8.059zM114.9 78.4l1.824-1.753v2.783l-1.824 1.65V78.4z"/></g><g><path fill="#fff" d="M289.458 69.327v6.186c1.828-1.753 3.653-3.401 5.59-5.156.318-.31.642-.721.964-1.03h-.965v-1.96h1.824v4.022c-.644.514-1.181 1.133-1.824 1.65-1.936 1.856-3.975 3.71-5.908 5.566l-1.828 1.65V67.368h7.736v1.96zm5.59 11.754l-5.59 5.154v5.877l-.319.207-7.305 6.702-1.72 1.648V67.985l.32-.308 5.589-5.363.751-.308h8.273v1.959h-7.844l-5.049 4.846v27.218l5.157-4.845v-5.775l.32-.308 7.416-6.805v2.785zm0-2.785l1.823-1.649v2.783l-1.824 1.65v-2.784zm1.823-1.649v2.783l11.494-10.62a.975.975 0 0 0 .186-.208.087.087 0 0 0 .029.004l.109-.104c.964-1.134 1.29-2.062 1.29-2.99 0-.929-.431-1.65-1.077-2.476l-.322-.205c-.537-.308-.966-.517-1.503-.618a10.572 10.572 0 0 0-2.15-.207h-8.056v1.959h8.057c.75 0 1.29.103 1.61.206.326 0 .54.104.86.31.322.413.54.721.54 1.135 0 .412-.218.926-.86 1.545 0 .104 0 .104-.109.104v.103l-10.098 9.28zm-1.824-14.64h1.824v1.958h-1.824v-1.959zm1.824 7.113v-1.752c.857 0 1.506.309 1.828.825.323.618.106 1.34-.754 2.164-.322.31-.75.723-1.074 1.032z"/></g><g><path fill="#fff" d="M32.612 81.184c-2.9-.929-4.834-3.3-4.834-6.186v-.517c.214-1.96.968-3.815 2.256-5.05a6.565 6.565 0 0 1 2.578-1.548v2.165c-.431.206-.75.413-1.073.825-.968.929-1.505 2.269-1.719 3.712v.413c0 1.75 1.074 3.298 2.792 4.02v2.166zm-9.991-2.476c1.182 2.269 1.936 3.507 3.546 4.64 1.397.825 3.33 1.342 6.445 1.547v1.96c-3.652-.207-5.908-.825-7.626-1.857-1.934-1.546-2.579-2.267-3.867-4.846-.431-.927-.754-1.65-.86-2.681-.108-.617-.214-1.134-.214-1.65v-.103c-.108-.823 0-1.75.106-2.576.108-.825.214-1.548.431-2.372a12.124 12.124 0 0 1 5.048-6.288c1.934-1.239 4.298-2.062 6.982-2.27h1.183l10.311-.103h2.47l-1.719 1.753-5.477 5.362-.322.308h-3.975c-.968 0-1.72.104-2.47.516v-2.165c.75-.206 1.61-.411 2.47-.411h3.115l3.439-3.301h-9.025c-2.255.207-4.189.928-5.8 1.958-2.04 1.343-3.546 3.198-4.191 5.26-.214.619-.32 1.34-.428 1.958-.11.722-.11 1.548-.11 2.371 0 .517.11.93.218 1.341 0 .412.214 1.237.32 1.649zm12.462 8.248h10.206v-7.423h-9.992a7.317 7.317 0 0 1-2.685-.515v2.166c.86.205 1.72.308 2.685.308h7.95v3.506l-5.158-.103h-5.477v1.96c.751.101 1.611.101 2.47.101z"/></g></g></g></svg>