<svg enable-background="new 0 0 366 48.7" viewBox="0 0 366 48.7" xmlns="http://www.w3.org/2000/svg"><g fill="#fff"><path d="m177.2 11.7c-1.8 0-3.9-2.2-2-3.9 2.1-2.1 5-3.1 9.2-3.1h1.1c3.8-.1 7.7 1.2 10.7 3.5h6.8c-3.7-4.5-9.1-7.4-14.9-7.9-.7-.1-2.6-.2-2.6-.2-9.2-.2-15.3 4.7-20.1 11.6h-19.9c-1.3-.3-2.6-.8-3.8-1.4 1.9 4.8 4.1 7.9 6.3 8.7h15c-.4 1.9-.3 3.8.2 5.7l-10.8.1c-1.4-.2-2.8-.7-4.1-1.4 2.1 5.6 4.2 8.3 6.1 8.2h39.6c3.2.8 3.5 3.8.4 5.3-2.7 1.6-5.8 2.5-9 2.5h-.8c-4.1-.1-7.5-1.9-10.6-3.9h-6.4c4.3 4.7 10 8.5 17.8 8.4h.8c8.3-.3 15-3.8 19.7-12.2h11.1c1.8.1 3.9-2.8 6-8-1.4.6-2.8 1-4.3 1.1h-10.5c.3-1.9.3-3.8-.1-5.7h14.4c2.4-.3 4.7-3.2 6.9-8.5-1.1.6-2.2 1.1-3.4 1.2zm24.4 17.7c-.6-2.6-1.7-5.1-4.6-5.1h-11.4-11.2c-6.8 0-7.1-5.1-4.7-10.4.8 3 2.4 5.2 5.5 5.2h10.4l12.2-.1c5.6 0 6.2 5.1 3.8 10.4z"/><path d="m255.4 22.5-9.8-4.3-1.7-.8h1.6 11.7v-7.3h-18c-1.8.3-3.5 1-4.9 2.1-1.3 1.2-2.1 2.8-2.4 4.5-.3 1.3 0 2.7.9 3.8.9 1 2.1 1.9 3.3 2.5l10.3 4.4h-.9-12.5v7.4h12.6 4.7c2.2 0 4.3-.5 6.1-1.6 1.6-1.1 2.6-2.8 2.9-4.6.2-1.3-.1-2.5-.8-3.6-.8-1.2-1.8-2-3.1-2.5zm1.7 5.8c-.1 1.3-.8 2.6-1.9 3.3-1.5.9-3.2 1.4-4.9 1.3h-15.3v-3.4h12c.6 0 1.3-.1 1.8-.4.4-.1.7-.6.7-1 .1-.4-.1-.8-.3-1-.5-.5-1.2-.9-1.8-1.2l-10.4-4.7c-1-.4-1.9-1.1-2.6-2-.6-.6-.8-1.5-.5-2.3.2-1.3.8-2.4 1.7-3.3 1.1-.9 2.4-1.4 3.8-1.5l15.8-.1v3.4h-11.5c-.8 0-1.5.1-2.3.3-.4.1-.8.5-.9.9s0 .8.2 1.1c.4.4.9.8 1.4 1l12.2 5.4c.9.3 1.7 1 2.3 1.8.6.7.7 1.6.5 2.4z"/><path d="m77 11.3c-1.1-.8-2.3-1.2-3.7-1.2h-17.4v7.3h10.2l-12.3 9.3c-.9.8-1.4 2-1.4 3.2s.5 2.4 1.3 3.4c.5.4 1 .8 1.5 1.1 0 0 1.2.4 1.8.4h10.4 4.5l.8-.3 6-5.7v-14.4c-.1-1.2-.7-2.3-1.7-3.1zm-.5 16.7-5 4.8h-14.5c-.3 0-.6-.1-.9-.2-.3-.2-.9-.7-.9-.7-.5-.6-.8-1.3-.9-2.1 0-.6.2-1.1.6-1.5 0 0 13.2-10.1 13.2-10.1 1.1-.7 1.4-1.3 1.1-2.1-.3-.5-.9-.7-1.9-.7h-9.5v-3.4h15.4c.9 0 1.7.3 2.4.8.5.4.8.9.9 1.5z"/><path d="m62 29.5h9.5v-9.2l-10.1 7.3zm7.3-5.2v3.1h-4.3z"/><path d="m27.1 34.9h9.2v-17.5h5.7v17.4h9.3v-24.7h-24.2zm2.1-22.8h20.2v20.8h-5.2v-17.4h-9.9v17.4h-5.2v-20.8z"/><path d="m108.4 10.9c-.5-.3-1-.5-1.5-.7-.7-.1-1.4-.1-2.1-.1h-18.2l-.8.2-5.8 5.7v32.7l9.3-8.6v-5.9l5.6-5.2 13.6-12.6c.8-.7 1.3-1.8 1.3-2.9 0-.9-.4-1.8-1.1-2.5zm-1.5 4.4-12 11.1-7.7 7v5.9l-5.2 4.7v-27.2l5-4.7h17.7c.5 0 1.1 0 1.6.1.3.1.5.2.9.3.3.3.5.7.5 1.1 0 .7-.3 1.2-.8 1.7z"/><path d="m96.7 15.5h-9.6v12.9s10.3-9.6 10.6-9.9c.9-.8 1.1-1.5.8-2.2-.3-.6-1.1-.9-1.8-.8zm-7.4 8.1v-6.2h6.6z"/><path d="m311.8 11.4c-1-.9-2.3-1.3-3.7-1.3h-17.4v7.4h10.2l-.3.2-12 9.1c-.9.8-1.4 1.9-1.5 3.1 0 1.3.5 2.5 1.4 3.4.4.5.9.9 1.5 1.1.6.3 1.2.5 1.8.5h14.9l.8-.3 6-5.7-.1-14.4c0-1.2-.6-2.4-1.6-3.1zm-.4 16.7-5 4.7h-14.5c-.3 0-.6 0-.9-.2-.3-.1-.6-.3-.9-.6-.5-.6-.8-1.4-.9-2.2 0-.6.3-1.1.6-1.5l13.2-10c1.1-.7 1.4-1.3 1.1-2.1-.3-.5-.9-.7-1.9-.8h-9.5v-3.3h15.4c.8 0 1.7.3 2.4.7.5.4.8 1 .9 1.6z"/><path d="m296.5 28.8c.2.5.7.8 1.2.7h8.4v-9.1l-9.5 7c-.2.4-.3.9-.1 1.4zm7.5-4.4v3.1h-4.2z"/><path d="m339.5 17.2c.6-.5 1.1-1.2 1.2-2.1.2-.7.2-1.5-.1-2.2-.2-.6-.6-1.2-1.1-1.6-.2-.1-.3-.2-.5-.3-1-.6-2.2-.9-3.4-.9h-14.2l-.6.3-6 5.7v18.9h9.2v-9.1l8.9 9.1h10.6l-11-11.6zm-.8 15.7h-4.9l-9.8-9.8c.6-.5 5.7-4.6 6.8-5.6 1.1-.8 1.1-1.5.3-2.2-.5-.2-1.1-.4-1.7-.3h-7.5v17.8h-5.2v-16l5-4.7h13.8c.8 0 1.6.1 2.4.5.3.3.6.6.8.9.1.4.2.8.1 1.1-.1.4-.3.7-.6.9l-8.6 7.5zm-14.8-12.4v-3.5h4.3c-.5.5-3.5 2.9-4.3 3.5z"/><path d="m352.1 27c-1.7-.6-2.8-2.2-2.8-4v-.4c.1-1.4.7-2.7 1.6-3.7.3-.3.7-.6 1.2-.8.9-.4 1.7-.6 2.5-.5h4l7.5-7.4-12.8.1h-1.2s0 0-.1 0c-2.4.2-4.8 1-6.9 2.3-2.4 1.5-4.1 3.7-5 6.3-.2.8-.4 1.6-.4 2.4-.1.9-.1 2.7-.1 2.7 0 .5.1 1 .1 1.6.2.9.5 1.8 1 2.7.8 1.9 2.2 3.6 3.9 4.8 1.7 1 3.9 1.6 7.6 1.8.8.1 1.6.1 2.5.1h10.2v-7.4h-10.1c-.9-.1-2.7-.6-2.7-.6zm10.6 6-5.2-.1h-5.3c-3.3-.2-5.2-.7-6.6-1.5-1.6-1.1-2.4-2.4-3.5-4.6-.1-.4-.5-2.5-.5-3 0-.8 0-1.6.1-2.4 0-.7.2-1.3.4-2 .7-2.2 2.2-4 4.1-5.3 1.8-1.1 3.8-1.8 5.8-2h9.1l-3.4 3.3h-3.1c-.8 0-1.6.1-2.5.4h-.1c-.9.3-1.8.8-2.4 1.5-1.4 1.3-2.2 3.1-2.3 5v.7c0 2.9 2 5.5 4.8 6.2h.1c.8.2 1.6.3 2.4.3h8z"/><path d="m290 13.5c-.1-.9-.4-1.8-1.1-2.5l-.3-.2c-.5-.3-1-.5-1.5-.6-.7-.1-1.4-.2-2.1-.2h-18.2l-.8.3-5.9 5.7v32.7l9.3-8.6v-5.9l19.2-17.7c.9-.8 1.3-1.9 1.4-3zm-2.9 1.7-19.4 17.9-.3.3v5.8l-5.2 4.8v-27.2l5-4.8h17.7c.5 0 1.1.1 1.6.2.3 0 .6.1.9.3.3.3.5.7.5 1.1 0 .6-.3 1.2-.8 1.6z"/><path d="m276.9 15.4h-9.6v12.9s10.3-9.6 10.6-9.9c.9-.8 1.1-1.5.8-2.2-.4-.6-1.1-.9-1.8-.8zm-7.4 8.1v-6.2h6.6c-.4.3-4.9 4.5-6.6 6.2z"/><path d="m11.5 18.9c.3-.4.7-.6 1.1-.8.8-.4 1.6-.6 2.5-.5h4l.3-.3 5.5-5.4 1.7-1.8h-2.5l-10.3.1h-1.2c-2.5.2-4.9.9-7 2.3-2.4 1.5-4.1 3.7-5 6.3-.2.8-.3 1.6-.4 2.4-.2.8-.2 1.7-.2 2.5v.1c0 .6.1 1.1.2 1.6.1.9.4 1.8.9 2.7.8 2 2.2 3.7 3.9 4.9 1.7 1 4 1.6 7.6 1.9.8.1 1.6.1 2.5.1h10.2v-7.4h-10c-.9 0-1.8-.2-2.6-.5h-.1c-1.7-.6-2.8-2.2-2.8-4v-.4c.2-1.5.8-2.8 1.7-3.8zm1.1 10.3c.9.2 1.8.3 2.7.3h8v3.5l-10.6-.1c-3.1-.2-5-.7-6.4-1.5-1.6-1.1-2.4-2.4-3.5-4.6-.2-.5-.3-1.1-.3-1.6-.1-.4-.2-.9-.2-1.3 0-.8 0-1.6.1-2.4.1-.7.2-1.3.4-2 .8-2.2 2.2-4 4.2-5.3 1.7-1.1 3.7-1.8 5.8-2h9l-3.4 3.3h-3.1c-.8 0-1.7.2-2.4.4-1 .3-1.9.8-2.6 1.5-1.3 1.4-2.1 3.2-2.3 5v.6c-.2 2.9 1.8 5.4 4.6 6.2z"/><path d="m204 44.1c-.7-.2-1.2-.3-1.4-.6-.1-.1-.2-.3-.2-.5s0-.3.1-.5c.2-.3.6-.4.9-.4h2.1v-.4h-2c-.6-.1-1.2.2-1.5.7-.1.2-.1.4-.1.5 0 .3.1.6.3.8.4.4 1 .6 1.6.6.9.2 1.3.4 1.5.6.1.2.2.4.2.6 0 .1 0 .3-.1.4-.3.4-.9.5-1.3.5h-2.1v.4h2.1c.6.1 1.2-.2 1.6-.6.1-.2.2-.4.2-.7s-.1-.6-.3-.9c-.4-.2-1-.4-1.6-.5z"/><path d="m207.2 41.8h.4v5.2h-.4z"/><path d="m207.4 40c-.2 0-.3.2-.3.3 0 .2.1.3.3.3s.3-.1.3-.3-.1-.3-.3-.3z"/><path d="m212 41.9c-.6-.3-1.3-.3-1.9 0-.8.4-1.2 1.2-1.1 2.1v3h.4v-2.9c-.1-.7.2-1.4.9-1.8.2-.1.5-.2.8-.2h.3c.9.2 1.5 1 1.3 1.9v3h.4v-3c.2-.8-.3-1.7-1.1-2.1z"/><path d="m216.8 42.2h.9v-.4h-.7c-.9-.1-1.8.4-2.3 1.2-.3.4-.4.9-.4 1.4s.1 1 .4 1.4c.5.8 1.4 1.2 2.3 1.2h.7v-.4h-.7c-.8.1-1.6-.3-2-1-.2-.4-.3-.8-.3-1.2s.1-.8.3-1.2c.3-.6 1-1 1.8-1z"/><path d="m221.3 46.7c-1.3 0-2.3-1.1-2.2-2.3 0-.9.4-1.7 1.2-2.1.3-.2.7-.3 1.1-.3.7 0 1.3.3 1.7.8l-3.3 2.3.2.3 3.7-2.5c-.5-.8-1.3-1.3-2.3-1.3-1.4 0-2.6 1.1-2.7 2.6s1.1 2.7 2.6 2.8 2.7-1.1 2.8-2.6h-.4c-.1 1.4-1.1 2.3-2.4 2.3z"/><path d="m227.1 40.1h1.3v7.3h.4v-7.7h-1.6z"/><path d="m233.4 39.6c-1.5 0-2.7 1.2-2.7 2.7s1.2 2.7 2.7 2.7c.2 0 .4 0 .6-.1l.3-.5c-.3.1-.6.2-.9.2-1.2 0-2.2-1-2.2-2.2s1-2.2 2.2-2.3h.1c1.2.1 2.1 1.1 2.1 2.3-.1.8-.4 1.5-.9 2.1l-2 3h.5l1.8-2.7c.6-.7.9-1.6 1-2.5v-.1c0-1.5-1.2-2.6-2.6-2.6z"/><path d="m239.3 42.9h-.7l2.3-2.2c.2-.2.3-.4.3-.6 0-.4-.5-.4-.7-.4h-3.4v.4h3.4c.1 0 .2 0 .2.1s0 .1-.2.3l-2.6 2.5v.3h1.4.3c1 0 1.7.8 1.7 1.8 0 .8-.4 1.8-2 1.8h-2.3v.4h2.2.4c1.2 0 2.2-1.1 2.1-2.3 0-.1 0-.3 0-.4-.1-1-1.2-1.9-2.4-1.7z"/><path d="m244 40.1h1.3v7.3h.4v-7.7h-1.6z"/><path d="m139 10.1h-10.4s-6.1 6-7.3 7.1c-.4.4-.8.8-1.1 1.3v-8.4h-9.2v24.7h9.2v-10.4c.4.6.8 1.2 1.4 1.7l8.1 8.8h11l-12.7-13.5zm-20.8 11v11.7h-2.6-2.6v-20.7h2.6 2.6zm17.7 11.8h-5.3l-7.5-8.1c-1-.8-1.6-2-1.7-3.3.1-1.1.6-2.1 1.4-2.9 1.2-1.1 6.4-6.2 6.7-6.5h4.8l-9.1 9.4z"/></g></svg>