<svg xmlns="http://www.w3.org/2000/svg" width="102.48" height="99.107" viewBox="0 0 102.48 99.107">
  <g id="tools" transform="translate(-480.001 120.08)">
    <g id="Group_223" data-name="Group 223" transform="translate(0.001 6.92)">
      <path id="Path_15723" data-name="Path 15723" d="M102.262,82.991A17.887,17.887,0,0,0,78.109,71.743L60.564,54.2l23.3-23.12,5.517-.156a1.949,1.949,0,0,0,1.618-.955l7.9-13.276a1.949,1.949,0,0,0-.292-2.378L91.774,7.49A1.949,1.949,0,0,0,89.4,7.2l-13.276,7.9a1.949,1.949,0,0,0-.955,1.618l-.156,5.5-23.237,23.2L35.826,29.46A17.837,17.837,0,0,0,8.359,11.584,1.949,1.949,0,0,0,8.495,14.9l8.85,4.932c1.949,1.111,2.339,4.425.76,7.232s-4.6,4.25-6.57,3.158L3.329,25.775A1.949,1.949,0,0,0,.444,27.608,17.837,17.837,0,0,0,25.26,42.891l14.5,14.5-6.277,6.277-1.423-1.4a4.074,4.074,0,0,0-5.634,0L24.48,64.218a3.9,3.9,0,0,0-.214,5.361L1.2,92.6a3.9,3.9,0,0,0-.121,5.512q.059.062.121.121l6.589,6.589a3.9,3.9,0,0,0,5.512.121q.062-.059.121-.121L36.508,81.763a3.9,3.9,0,0,0,5.361-.214L43.819,79.6a3.9,3.9,0,0,0,.121-5.512q-.059-.062-.121-.121L42.4,72.542l6.238-6.375L67.543,85.077a17.837,17.837,0,0,0,30.333,15.439A1.949,1.949,0,0,0,97,97.358L86.024,94.415a3.607,3.607,0,0,1-2.3-2.242,7.155,7.155,0,0,1-.195-4.6c.819-3.061,3.411-5.244,5.595-4.659l10.858,2.924a1.832,1.832,0,0,0,.526,0,1.949,1.949,0,0,0,1.754-2.846Zm-24-58.619a1.949,1.949,0,0,0,.565-1.326l.156-5.2,11.053-6.57,4.679,4.679L88.285,26.984l-5.3.195a1.949,1.949,0,0,0-1.326.565L57.874,51.508l-3.353-3.353ZM10.659,102.056,3.972,95.409l23.179-23.12L30.5,75.642l3.2,3.314Zm28.52-23.393-2.573-2.593-.994-.994L27.424,66.83l1.949-1.949,11.7,11.853Zm.37-8.889L36.2,66.421l6.277-6.277L45.826,63.5Zm50.529,9.377a6.825,6.825,0,0,0-1.774-.234,9.552,9.552,0,0,0-8.6,7.642,11.054,11.054,0,0,0,.37,7.115,7.428,7.428,0,0,0,4.893,4.484l7.252,1.949A13.938,13.938,0,0,1,71.52,84.94a1.949,1.949,0,0,0-.526-1.813L27.054,39.148a1.95,1.95,0,0,0-2.3-.273A13.95,13.95,0,0,1,5.122,31.312l4.445,2.476a6.881,6.881,0,0,0,3.392.877,10.176,10.176,0,0,0,8.48-5.536c2.651-4.737,1.618-10.371-2.281-12.554l-5.673-3.217A13.938,13.938,0,0,1,31.752,29.635a1.949,1.949,0,0,0,.526,1.813L76.315,75.466a1.949,1.949,0,0,0,2.281.351,13.953,13.953,0,0,1,18.539,5.244Z" transform="translate(479.999 -133.92)" fill="#fff"/>
    </g>
  </g>
</svg>
