<svg xmlns="http://www.w3.org/2000/svg" width="112.97" height="88.238" viewBox="0 0 112.97 88.238">
  <g id="Group_255" data-name="Group 255" transform="translate(-423 -585.678)">
    <g id="helicopter-2" transform="translate(423 585.186)">
      <path id="Path_15731" data-name="Path 15731" d="M60.136,10.847a5.629,5.629,0,0,0,3.126.942H107.32a5.648,5.648,0,0,0,0-11.3H63.262a5.615,5.615,0,0,0-3.133.942L56.484,3.881,52.831,1.434A5.623,5.623,0,0,0,49.705.492H5.649a5.648,5.648,0,1,0,0,11.3H49.705a5.621,5.621,0,0,0,3.133-.942L54.6,9.657V21.2h-7.28a5.68,5.68,0,0,0-4.845,2.743l-4,6.671H14.484L9.3,16.776a1.883,1.883,0,0,0-1.764-1.222H1.882A1.882,1.882,0,0,0,0,17.436v33.89A1.883,1.883,0,0,0,1.882,53.21H5.649a1.883,1.883,0,0,0,1.685-1.041l5.02-10.043L39.177,47.4,52.342,62.027a13.2,13.2,0,0,0,9.79,4.363v5.648H58.811a4.895,4.895,0,0,1-4.4-2.724L51.042,71A8.66,8.66,0,0,0,58.811,75.8h42.416A8.659,8.659,0,0,0,109.014,71l-3.37-1.683a4.893,4.893,0,0,1-4.417,2.724H97.906V66.39h6.836a8.226,8.226,0,0,0,1.994-16.207l-.646-.162a4.5,4.5,0,0,1-2.4-1.542l-9.2-11.5a16.865,16.865,0,0,0-13.234-6.36H74.5l-4-6.673A5.687,5.687,0,0,0,65.648,21.2H58.367V9.659ZM62.23,4.579a1.876,1.876,0,0,1,1.031-.322h44.058a1.883,1.883,0,1,1,0,3.766H63.262a1.874,1.874,0,0,1-1.043-.316L59.873,6.14ZM50.745,7.716a1.883,1.883,0,0,1-1.04.307H5.649a1.883,1.883,0,1,1,0-3.766H49.705a1.874,1.874,0,0,1,1.043.316l2.346,1.567ZM3.766,19.32H6.226l4.237,11.3h-6.7Zm.719,30.125H3.766V40.437l4.754.942ZM94.14,72.038H65.9V66.39H94.14Zm-.529-30.125,5.978,7.47-10.743-.16-4.511-7.31ZM73.429,34.382h7.823a13.1,13.1,0,0,1,9.226,3.766H80.96a1.883,1.883,0,0,0-1.6,2.871l6.825,11.061a1.883,1.883,0,0,0,1.574.894l16.171.254,1.9.565a4.615,4.615,0,0,1,3.378,4.37,4.466,4.466,0,0,1-4.46,4.46H62.132a9.437,9.437,0,0,1-7-3.116L41.555,44.419a1.885,1.885,0,0,0-1.036-.588L3.766,36.6V34.382Zm-7.782-9.414a1.9,1.9,0,0,1,1.617.915L70.1,30.616H42.864L45.7,25.883a1.9,1.9,0,0,1,1.617-.915Zm0,0" fill="#fff"/>
      <path id="Path_15732" data-name="Path 15732" d="M305.441,206.713a1.883,1.883,0,0,0,1.567.837h11.3a1.883,1.883,0,0,0,1.567-2.927l-7.531-11.3a1.882,1.882,0,0,0-1.567-.838h-11.3a1.883,1.883,0,0,0-1.567,2.927Zm4.325-10.459,5.021,7.531h-6.778l-5.021-7.531Zm0,0" transform="translate(-239.227 -154.34)" fill="#fff"/>
    </g>
    <g id="next-3" transform="translate(400.936 673.916) rotate(-90)">
      <path id="Path_15735" data-name="Path 15735" d="M38.726,49.428,21.45,35.19a1.077,1.077,0,0,0-1.764.834v7.5c-8.386.3-14.15,3.263-17.148,8.8C-.043,57.108-.019,62.768,0,66.512v.866a1.088,1.088,0,0,0,.81,1.05,1.055,1.055,0,0,0,.273.032,1.068,1.068,0,0,0,.938-.545C7.878,57.6,12.7,57.1,19.678,57.076v7.48a1.075,1.075,0,0,0,.625.978,1.1,1.1,0,0,0,1.154-.144L38.726,51.1a1.09,1.09,0,0,0,.393-.834A1.106,1.106,0,0,0,38.726,49.428ZM21.851,62.255V55.994a1.048,1.048,0,0,0-.321-.762,1.1,1.1,0,0,0-.762-.321c-4.361,0-7.7.12-10.951,1.635-2.806,1.307-5.235,3.527-7.632,7.015.1-3.183.513-6.983,2.253-10.2,2.758-5.1,8.1-7.624,16.33-7.7a1.086,1.086,0,0,0,1.074-1.082V38.317L36.329,50.27Z" transform="translate(0 0)" fill="#fff"/>
    </g>
  </g>
</svg>
