<svg xmlns="http://www.w3.org/2000/svg" width="112.97" height="91.827" viewBox="0 0 112.97 91.827">
  <g id="Group_256" data-name="Group 256" transform="translate(-415 -585.678)">
    <g id="helicopter-2" transform="translate(415 585.186)">
      <path id="Path_15731" data-name="Path 15731" d="M60.136,10.847a5.629,5.629,0,0,0,3.126.942H107.32a5.648,5.648,0,0,0,0-11.3H63.262a5.615,5.615,0,0,0-3.133.942L56.484,3.881,52.831,1.434A5.623,5.623,0,0,0,49.705.492H5.649a5.648,5.648,0,1,0,0,11.3H49.705a5.621,5.621,0,0,0,3.133-.942L54.6,9.657V21.2h-7.28a5.68,5.68,0,0,0-4.845,2.743l-4,6.671H14.484L9.3,16.776a1.883,1.883,0,0,0-1.764-1.222H1.882A1.882,1.882,0,0,0,0,17.436v33.89A1.883,1.883,0,0,0,1.882,53.21H5.649a1.883,1.883,0,0,0,1.685-1.041l5.02-10.043L39.177,47.4,52.342,62.027a13.2,13.2,0,0,0,9.79,4.363v5.648H58.811a4.895,4.895,0,0,1-4.4-2.724L51.042,71A8.66,8.66,0,0,0,58.811,75.8h42.416A8.659,8.659,0,0,0,109.014,71l-3.37-1.683a4.893,4.893,0,0,1-4.417,2.724H97.906V66.39h6.836a8.226,8.226,0,0,0,1.994-16.207l-.646-.162a4.5,4.5,0,0,1-2.4-1.542l-9.2-11.5a16.865,16.865,0,0,0-13.234-6.36H74.5l-4-6.673A5.687,5.687,0,0,0,65.648,21.2H58.367V9.659ZM62.23,4.579a1.876,1.876,0,0,1,1.031-.322h44.058a1.883,1.883,0,1,1,0,3.766H63.262a1.874,1.874,0,0,1-1.043-.316L59.873,6.14ZM50.745,7.716a1.883,1.883,0,0,1-1.04.307H5.649a1.883,1.883,0,1,1,0-3.766H49.705a1.874,1.874,0,0,1,1.043.316l2.346,1.567ZM3.766,19.32H6.226l4.237,11.3h-6.7Zm.719,30.125H3.766V40.437l4.754.942ZM94.14,72.038H65.9V66.39H94.14Zm-.529-30.125,5.978,7.47-10.743-.16-4.511-7.31ZM73.429,34.382h7.823a13.1,13.1,0,0,1,9.226,3.766H80.96a1.883,1.883,0,0,0-1.6,2.871l6.825,11.061a1.883,1.883,0,0,0,1.574.894l16.171.254,1.9.565a4.615,4.615,0,0,1,3.378,4.37,4.466,4.466,0,0,1-4.46,4.46H62.132a9.437,9.437,0,0,1-7-3.116L41.555,44.419a1.885,1.885,0,0,0-1.036-.588L3.766,36.6V34.382Zm-7.782-9.414a1.9,1.9,0,0,1,1.617.915L70.1,30.616H42.864L45.7,25.883a1.9,1.9,0,0,1,1.617-.915Zm0,0" fill="#fff"/>
      <path id="Path_15732" data-name="Path 15732" d="M305.441,206.713a1.883,1.883,0,0,0,1.567.837h11.3a1.883,1.883,0,0,0,1.567-2.927l-7.531-11.3a1.882,1.882,0,0,0-1.567-.838h-11.3a1.883,1.883,0,0,0-1.567,2.927Zm4.325-10.459,5.021,7.531h-6.778l-5.021-7.531Zm0,0" transform="translate(-239.227 -154.34)" fill="#fff"/>
    </g>
    <path id="replace" d="M39.431,20.139v.077a19.652,19.652,0,0,1-3.1,10.534,1.54,1.54,0,1,1-2.6-1.66,16.585,16.585,0,1,0-28.171-17.5l3.521.005a1.54,1.54,0,0,1,0,3.081h0l-4.507-.007a4.512,4.512,0,0,1-3.23-1.326A4.613,4.613,0,0,1,0,10.03V5.583a1.54,1.54,0,1,1,3.081,0V9.75A19.714,19.714,0,0,1,19.792.5,19.65,19.65,0,0,1,39.431,20.139ZM29.307,33.786a16.531,16.531,0,0,1-9.515,2.988l-.039,0-.039,0c-.234,0-.471-.005-.706-.015a1.54,1.54,0,1,0-.128,3.078c.277.011.558.017.834.017l.039,0,.039,0a19.6,19.6,0,0,0,11.279-3.543,1.54,1.54,0,0,0-1.764-2.526ZM7.5,31.433a1.54,1.54,0,0,0-2.261,2.092c.347.375.714.742,1.089,1.09a1.54,1.54,0,0,0,2.092-2.261C8.1,32.06,7.8,31.75,7.5,31.433Zm-3.387-5.5A1.54,1.54,0,0,0,1.227,27c.178.48.378.958.593,1.423a1.54,1.54,0,0,0,2.795-1.3C4.433,26.736,4.265,26.333,4.115,25.929Zm9.813,9.811c-.4-.15-.809-.319-1.2-.5a1.54,1.54,0,0,0-1.3,2.795c.465.215.944.415,1.425.593a1.54,1.54,0,0,0,1.072-2.888ZM1.62,22.448a1.54,1.54,0,0,0,1.475-1.6c-.01-.234-.015-.471-.015-.706a1.54,1.54,0,0,0-3.081,0c0,.277.006.558.017.834a1.54,1.54,0,0,0,1.538,1.476ZM13.826,21a9.27,9.27,0,0,1,1.559-1.024,5.853,5.853,0,1,1,8.815,0,9.245,9.245,0,0,1,4.773,6.274,2.851,2.851,0,0,1-2.8,3.435H13.41a2.852,2.852,0,0,1-2.8-3.435A9.254,9.254,0,0,1,13.826,21Zm3.194-4.869a2.773,2.773,0,1,0,2.773-2.773A2.776,2.776,0,0,0,17.02,16.134ZM13.693,26.608h12.2a6.253,6.253,0,0,0-6.047-4.621h-.1A6.253,6.253,0,0,0,13.693,26.608Zm0,0" transform="translate(420.926 637.65)" fill="#fff"/>
  </g>
</svg>
