<svg xmlns="http://www.w3.org/2000/svg" width="110.329" height="110.329" viewBox="0 0 110.329 110.329">
  <g id="distribution" transform="translate(-2 -2)">
    <path id="Path_15736" data-name="Path 15736" d="M95.78,53.487a1.839,1.839,0,0,0,1.839-1.839V35.1h9.194a5.516,5.516,0,0,0,5.516-5.516V7.516A5.516,5.516,0,0,0,106.813,2H84.747A5.516,5.516,0,0,0,79.23,7.516V29.582A5.516,5.516,0,0,0,84.747,35.1h9.194V49.809H79.23V42.454h-.022a1.817,1.817,0,0,0-.973-1.633L58.009,30.358a1.839,1.839,0,0,0-1.688,0L36.094,40.821a1.817,1.817,0,0,0-.973,1.633H35.1v7.355H20.388V35.1h9.194A5.516,5.516,0,0,0,35.1,29.582V7.516A5.516,5.516,0,0,0,29.582,2H7.516A5.516,5.516,0,0,0,2,7.516V29.582A5.516,5.516,0,0,0,7.516,35.1h9.194V51.648a1.839,1.839,0,0,0,1.839,1.839H35.1v7.355H18.549a1.839,1.839,0,0,0-1.839,1.839V79.23H7.516A5.516,5.516,0,0,0,2,84.747v22.066a5.516,5.516,0,0,0,5.516,5.516H29.582a5.516,5.516,0,0,0,5.516-5.516V84.747a5.516,5.516,0,0,0-5.516-5.516H20.388V64.52H35.1v7.355a1.839,1.839,0,0,0,1.839,1.839H77.392a1.839,1.839,0,0,0,1.839-1.839V64.52H93.941V79.23H84.747a5.516,5.516,0,0,0-5.516,5.516v22.066a5.516,5.516,0,0,0,5.516,5.516h22.066a5.516,5.516,0,0,0,5.516-5.516V84.747a5.516,5.516,0,0,0-5.516-5.516H97.619V62.681a1.839,1.839,0,0,0-1.839-1.839H79.23V53.487ZM93.941,5.678h3.678V14.11l-.539-.539a1.839,1.839,0,0,0-2.6,0l-.539.539Zm-11.033,23.9V7.516a1.839,1.839,0,0,1,1.839-1.839h5.516V18.549a1.839,1.839,0,0,0,3.139,1.3l2.378-2.378,2.378,2.378a1.839,1.839,0,0,0,3.139-1.3V5.678h5.516a1.839,1.839,0,0,1,1.839,1.839V29.582a1.839,1.839,0,0,1-1.839,1.839H84.747A1.839,1.839,0,0,1,82.908,29.582Zm-66.2-23.9h3.678V14.11l-.539-.539a1.839,1.839,0,0,0-2.6,0l-.539.539ZM5.678,29.582V7.516A1.839,1.839,0,0,1,7.516,5.678h5.516V18.549a1.839,1.839,0,0,0,3.139,1.3l2.378-2.378,2.378,2.378a1.839,1.839,0,0,0,3.139-1.3V5.678h5.516a1.839,1.839,0,0,1,1.839,1.839V29.582a1.839,1.839,0,0,1-1.839,1.839H7.516A1.839,1.839,0,0,1,5.678,29.582ZM16.711,82.908h3.678v8.433l-.539-.539a1.839,1.839,0,0,0-2.6,0l-.539.539Zm14.711,1.839v22.066a1.839,1.839,0,0,1-1.839,1.839H7.516a1.839,1.839,0,0,1-1.839-1.839V84.747a1.839,1.839,0,0,1,1.839-1.839h5.516V95.78a1.839,1.839,0,0,0,3.139,1.3L18.549,94.7l2.378,2.378a1.839,1.839,0,0,0,3.139-1.3V82.908h5.516A1.839,1.839,0,0,1,31.421,84.747Zm62.52-1.839h3.678v8.433L97.08,90.8a1.839,1.839,0,0,0-2.6,0l-.539.539Zm14.711,1.839v22.066a1.839,1.839,0,0,1-1.839,1.839H84.747a1.839,1.839,0,0,1-1.839-1.839V84.747a1.839,1.839,0,0,1,1.839-1.839h5.516V95.78a1.839,1.839,0,0,0,3.139,1.3L95.78,94.7l2.378,2.378a1.839,1.839,0,0,0,3.139-1.3V82.908h5.516A1.839,1.839,0,0,1,108.651,84.747ZM57.165,34.063l12.669,6.552H44.5ZM68.2,70.036H46.132V51.648H68.2Zm3.678,0V49.809a1.839,1.839,0,0,0-1.839-1.839H44.293a1.839,1.839,0,0,0-1.839,1.839V70.036H38.776V44.293H75.553V70.036Z" transform="translate(0)" fill="#fff"/>
  </g>
</svg>
