<svg xmlns="http://www.w3.org/2000/svg" width="96.085" height="132.797" viewBox="0 0 96.085 132.797">
  <g id="list" transform="translate(-64)">
    <path id="Path_15737" data-name="Path 15737" d="M151.05,9.178H134.49A6.751,6.751,0,0,0,128.1,4.589h-7a11.236,11.236,0,0,0-18.118,0h-7a6.751,6.751,0,0,0-6.386,4.589H73.035A9.045,9.045,0,0,0,64,18.213v105.55a9.045,9.045,0,0,0,9.035,9.035H151.05a9.045,9.045,0,0,0,9.035-9.035V18.213a9.045,9.045,0,0,0-9.035-9.035ZM89.594,22.659a6.751,6.751,0,0,0,6.386,4.589H128.1a6.751,6.751,0,0,0,6.386-4.589H146.6v96.658H77.481V22.659ZM95.98,8.891h8.157A2.151,2.151,0,0,0,106,7.822a6.953,6.953,0,0,1,12.092,0,2.152,2.152,0,0,0,1.859,1.069H128.1a2.441,2.441,0,0,1,2.438,2.438V20.5s0,0,0,.005v0a2.441,2.441,0,0,1-2.438,2.435H95.98a2.441,2.441,0,0,1-2.438-2.433s0,0,0-.005,0-.007,0-.011V11.329A2.441,2.441,0,0,1,95.98,8.891Zm59.8,114.871a4.738,4.738,0,0,1-4.733,4.733H73.035a4.738,4.738,0,0,1-4.733-4.733V18.213a4.738,4.738,0,0,1,4.733-4.733H89.24v4.876H75.329a2.151,2.151,0,0,0-2.151,2.151v100.96a2.151,2.151,0,0,0,2.151,2.151h73.426a2.151,2.151,0,0,0,2.151-2.151V20.508a2.151,2.151,0,0,0-2.151-2.151H134.844V13.481H151.05a4.738,4.738,0,0,1,4.733,4.733Z" transform="translate(0)" fill="#fff"/>
    <path id="Path_15738" data-name="Path 15738" d="M226.151,40.891A2.151,2.151,0,0,0,228.3,38.74V34.151a2.151,2.151,0,0,0-4.3,0V38.74A2.151,2.151,0,0,0,226.151,40.891Z" transform="translate(-114.109 -22.822)" fill="#fff"/>
    <path id="Path_15739" data-name="Path 15739" d="M234.151,156.3h13.767a2.151,2.151,0,1,0,0-4.3H234.151a2.151,2.151,0,0,0,0,4.3Z" transform="translate(-119.814 -108.403)" fill="#fff"/>
    <path id="Path_15740" data-name="Path 15740" d="M234.151,188.3H257.1a2.151,2.151,0,0,0,0-4.3H234.151a2.151,2.151,0,0,0,0,4.3Z" transform="translate(-119.814 -131.225)" fill="#fff"/>
    <path id="Path_15741" data-name="Path 15741" d="M143.514,159.146a2.152,2.152,0,0,0,3.043,0l11.473-11.473a2.151,2.151,0,0,0-3.042-3.042l-9.952,9.952-5.362-5.363a2.151,2.151,0,0,0-3.042,3.042Z" transform="translate(-51.349 -102.699)" fill="#fff"/>
    <path id="Path_15742" data-name="Path 15742" d="M234.151,236.3h13.767a2.151,2.151,0,1,0,0-4.3H234.151a2.151,2.151,0,0,0,0,4.3Z" transform="translate(-119.814 -165.458)" fill="#fff"/>
    <path id="Path_15743" data-name="Path 15743" d="M234.151,268.3H257.1a2.151,2.151,0,0,0,0-4.3H234.151a2.151,2.151,0,0,0,0,4.3Z" transform="translate(-119.814 -188.28)" fill="#fff"/>
    <path id="Path_15744" data-name="Path 15744" d="M143.514,239.146a2.152,2.152,0,0,0,3.043,0l11.473-11.473a2.151,2.151,0,1,0-3.042-3.042l-9.952,9.952-5.362-5.363a2.151,2.151,0,0,0-3.042,3.042Z" transform="translate(-51.349 -159.753)" fill="#fff"/>
    <path id="Path_15745" data-name="Path 15745" d="M234.151,316.3h13.767a2.151,2.151,0,1,0,0-4.3H234.151a2.151,2.151,0,0,0,0,4.3Z" transform="translate(-119.814 -222.512)" fill="#fff"/>
    <path id="Path_15746" data-name="Path 15746" d="M234.151,348.3H257.1a2.151,2.151,0,0,0,0-4.3H234.151a2.151,2.151,0,0,0,0,4.3Z" transform="translate(-119.814 -245.334)" fill="#fff"/>
    <path id="Path_15747" data-name="Path 15747" d="M143.514,319.146a2.152,2.152,0,0,0,3.043,0l11.473-11.473a2.151,2.151,0,1,0-3.042-3.042l-9.952,9.952-5.362-5.363a2.151,2.151,0,1,0-3.042,3.042Z" transform="translate(-51.349 -216.808)" fill="#fff"/>
  </g>
</svg>
