<svg id="icon_9_" xmlns="http://www.w3.org/2000/svg" width="19" height="11" viewBox="0 0 19 11">
  <path id="VK_1_" d="M9.317,10.995h1.176a.646.646,0,0,0,.5-.26.873.873,0,0,0,.168-.519s0-1.558.672-1.818,1.6,1.558,2.521,2.164a1.889,1.889,0,0,0,1.26.433H18.14s1.344-.087.672-1.125a9.392,9.392,0,0,0-1.849-2.251c-1.6-1.558-1.344-1.3.5-3.9,1.176-1.645,1.6-2.6,1.512-3.03-.168-.433-1.008-.26-1.008-.26H15.115s-.252,0-.336.087a.676.676,0,0,0-.252.346A14.372,14.372,0,0,1,13.434,3.2c-1.26,2.251-1.764,2.337-2.017,2.251-.5-.346-.336-1.3-.336-1.991,0-2.164.336-3.03-.588-3.29A8.8,8.8,0,0,0,9.149,0,5.885,5.885,0,0,0,6.8.26c-.336.173-.588.519-.42.519a1.122,1.122,0,0,1,.84.433,3.317,3.317,0,0,1,.252,1.3s.168,2.511-.42,2.857c-.42.26-.924-.26-2.017-2.251A17.333,17.333,0,0,1,4.024.952,1.494,1.494,0,0,0,3.772.606a.644.644,0,0,0-.42-.173H.663A1.012,1.012,0,0,0,.075.606c-.168.173,0,.519,0,.519s2.1,5.108,4.537,7.7a6.352,6.352,0,0,0,4.705,2.164Z" fill="#fff" fill-rule="evenodd"/>
</svg>
