<svg id="icon_5_" xmlns="http://www.w3.org/2000/svg" width="18" height="14" viewBox="0 0 18 14">
  <path id="Twit" d="M18,1.684a8.026,8.026,0,0,1-2.091.532A3.856,3.856,0,0,0,17.545.266a6.847,6.847,0,0,1-2.364.886A3.672,3.672,0,0,0,12.455,0,3.6,3.6,0,0,0,8.818,3.544a2.394,2.394,0,0,0,.091.8A10.636,10.636,0,0,1,1.364.62,4.051,4.051,0,0,0,.818,2.392,3.672,3.672,0,0,0,2.455,5.405,3.2,3.2,0,0,1,.818,4.962h0A3.644,3.644,0,0,0,3.727,8.506a3.494,3.494,0,0,1-1,.089A2.051,2.051,0,0,1,2,8.506a3.619,3.619,0,0,0,3.455,2.481A7.353,7.353,0,0,1,.909,12.494,3.17,3.17,0,0,1,0,12.405,10.968,10.968,0,0,0,5.636,14,10.228,10.228,0,0,0,16.091,3.81V3.367A4.36,4.36,0,0,0,18,1.684Z" fill="#fff" fill-rule="evenodd"/>
</svg>
