<svg xmlns="http://www.w3.org/2000/svg" width="89.651" height="44.807" viewBox="0 0 89.651 44.807">
  <path id="Path_15784" data-name="Path 15784" d="M177.2,11.7c-1.8,0-3.9-2.2-2-3.9,2.1-2.1,5-3.1,9.2-3.1h1.1a17.174,17.174,0,0,1,10.7,3.5H203A21.833,21.833,0,0,0,188.1.3c-.7-.1-2.6-.2-2.6-.2-9.2-.2-15.3,4.7-20.1,11.6H145.5a17.355,17.355,0,0,1-3.8-1.4c1.9,4.8,4.1,7.9,6.3,8.7h15a12.224,12.224,0,0,0,.2,5.7l-10.8.1a12.471,12.471,0,0,1-4.1-1.4c2.1,5.6,4.2,8.3,6.1,8.2H194c3.2.8,3.5,3.8.4,5.3a17.672,17.672,0,0,1-9,2.5h-.8c-4.1-.1-7.5-1.9-10.6-3.9h-6.4c4.3,4.7,10,8.5,17.8,8.4h.8c8.3-.3,15-3.8,19.7-12.2H217c1.8.1,3.9-2.8,6-8a12.992,12.992,0,0,1-4.3,1.1H208.2a15.609,15.609,0,0,0-.1-5.7h14.4c2.4-.3,4.7-3.2,6.9-8.5a8.677,8.677,0,0,1-3.4,1.2Zm24.4,17.7c-.6-2.6-1.7-5.1-4.6-5.1H174.4c-6.8,0-7.1-5.1-4.7-10.4.8,3,2.4,5.2,5.5,5.2h10.4l12.2-.1C203.4,19,204,24.1,201.6,29.4Z" transform="translate(-140.754 0.406)" fill="none" stroke="#fff" stroke-width="1"/>
</svg>
