<svg xmlns="http://www.w3.org/2000/svg" width="366.032" height="48.669" viewBox="0 0 366.032 48.669">
  <g id="Logo" transform="translate(-78 -55)">
    <g id="Векторный_смарт-объект" data-name="Векторный смарт-объект" transform="translate(78 55)">
      <g id="Векторный_смарт-объект-2" data-name="Векторный смарт-объект" transform="translate(0 0)">
        <g id="Group_83" data-name="Group 83" transform="translate(0 0)">
          <g id="Group_81" data-name="Group 81">
            <g id="Group_80" data-name="Group 80">
              <path id="Path_15608" data-name="Path 15608" d="M190.474,4.6a19.829,19.829,0,0,1,2.47.206,21.824,21.824,0,0,1,14.932,7.938h-6.767a16.866,16.866,0,0,0-10.635-3.5V4.6Zm0,11.651h40.393a9.078,9.078,0,0,0,3.439-1.237c-2.148,5.257-4.515,8.145-6.88,8.453H213.03a14.3,14.3,0,0,1,.108,5.67h10.529a13.322,13.322,0,0,0,4.3-1.133c-2.15,5.257-4.19,8.145-6.017,8.042H210.882C206.265,44.4,199.5,47.9,191.225,48.211h-.751V43.776A17.419,17.419,0,0,0,199.5,41.3c3.113-1.444,2.79-4.435-.434-5.259h-8.592V28.929h11.388c2.9,0,3.972,2.476,4.62,5.053,2.471-5.258,1.822-10.414-3.763-10.414l-12.245.1Zm0-11.651h0V9.238h-1.182c-4.19,0-7.091,1.032-9.238,3.093-1.828,1.754.214,3.919,2.042,3.919h8.378v7.423h-10.42c-3.115,0-4.727-2.166-5.48-5.156-2.362,5.362-2.038,10.413,4.729,10.413h11.171v7.115H159.428c-1.93.1-3.975-2.68-6.123-8.248a10.223,10.223,0,0,0,4.084,1.444l10.848-.1a12.651,12.651,0,0,1-.218-5.67H152.986c-2.256-.721-4.4-3.815-6.339-8.66a12.266,12.266,0,0,0,3.761,1.444h19.869c4.835-7.011,10.96-11.856,20.2-11.651Zm0,43.613h0c-7.841.1-13.535-3.61-17.83-8.352h6.443c3.115,2.061,6.553,3.813,10.637,3.917h.75Z" transform="translate(-4.913 -4.592)" fill="#fff"/>
              <path id="Path_15609" data-name="Path 15609" d="M258.847,16.522h-9.669V14.562h11.711v7.322H249.178V19.925h9.669v-3.4ZM249.178,29.41l1.827.824h.106a6.631,6.631,0,0,1,1.828,1.237,1.2,1.2,0,0,1,.319,1.032,1.077,1.077,0,0,1-.747,1.03,3.621,3.621,0,0,1-1.828.412h-1.5V31.883h.859l-.859-.309V29.41Zm0,7.939v1.959h4.729a11.448,11.448,0,0,0,6.123-1.65,6.817,6.817,0,0,0,2.9-4.64h0a5.521,5.521,0,0,0-.754-3.607,6.606,6.606,0,0,0-3.116-2.476h-.1l-9.778-4.329V24.77l8.915,3.919h0a4.814,4.814,0,0,1,2.256,1.752,2.688,2.688,0,0,1,.435,2.268h0a4.3,4.3,0,0,1-1.936,3.3,9.205,9.205,0,0,1-4.94,1.341Zm0-20.827-6.123.1a6.5,6.5,0,0,0-3.761,1.547,5.259,5.259,0,0,0-1.716,3.3h0a2.409,2.409,0,0,0,.534,2.269,6.421,6.421,0,0,0,2.579,1.959l8.487,3.711v2.164l-9.347-4.02-.1-.1a10.481,10.481,0,0,1-3.335-2.476,4.772,4.772,0,0,1-.857-3.813h0a7.522,7.522,0,0,1,2.365-4.538,10.6,10.6,0,0,1,4.939-2.061h6.337v1.959Zm0,17.424H238.652v3.4h10.526v1.959H236.611V31.883h12.568v2.062Zm0-9.176V22.605l-1.61-.721h1.61V19.925h-1.825a5.723,5.723,0,0,0-2.256.309,1.252,1.252,0,0,0-.859.928h0a1.456,1.456,0,0,0,.214,1.134,5.181,5.181,0,0,0,1.4,1.03h.109Z" transform="translate(-3.675 -4.453)" fill="#fff"/>
              <path id="Path_15610" data-name="Path 15610" d="M305.136,14.562h5.911A5.632,5.632,0,0,1,314.7,15.9,3.622,3.622,0,0,1,316.31,19l.108,14.022v.413l-.322.207L310.4,39.1l-.751.308h-4.515V37.349h4.087l5.046-4.744V19a2.292,2.292,0,0,0-.86-1.649,4.236,4.236,0,0,0-2.362-.723h-5.911V14.562Zm0,19.383h3.872V24.874l-1.614,1.237-2.259,1.649v2.475l1.827-1.341v3.093h-1.827v1.959Zm0-10.516.863-.619h0c1.074-.721,1.4-1.34,1.074-2.061h0c-.326-.516-.86-.723-1.936-.825v1.753h0Zm-1.288-1.444H293.642V14.562h11.494v2.061h-9.452v3.3h9.452v1.649h0v1.856l-.32.31h0L293,32.709l.109-.1c-.109.1-.109.1-.214.207h-.111a2.424,2.424,0,0,0-.642,1.548A3.25,3.25,0,0,0,293,36.523h0a1.683,1.683,0,0,0,.859.62,1.2,1.2,0,0,0,.86.205h10.417v2.061H294.718a3.719,3.719,0,0,1-1.825-.515,3.814,3.814,0,0,1-1.5-1.134h0a5.111,5.111,0,0,1-1.4-3.4,4.463,4.463,0,0,1,1.5-3.093l.431-.1h-.218l11.82-8.969h0l.32-.207Zm1.288,5.774L303.528,29h0l-3.975,2.887a1.392,1.392,0,0,0-.109,1.342,1.168,1.168,0,0,0,1.179.721h4.512V31.986h-2.362l2.042-1.442h0l.32-.31Z" transform="translate(-2.915 -4.453)" fill="#fff"/>
              <path id="Path_15611" data-name="Path 15611" d="M342.033,39.409V35.184L344.4,37.76l1.613,1.649h-3.978Zm0-17.732h0a3.146,3.146,0,0,0,1.182-2.063,3.009,3.009,0,0,0-.106-2.165,4,4,0,0,0-1.077-1.648v5.876Zm-13.427,1.546a1.531,1.531,0,0,0,.431-.309c.646-.517,1.179-.929,1.719-1.444h-2.151V19.511h3.33a3.583,3.583,0,0,1,1.719.31h0c.75.618.75,1.341-.32,2.164h0c-1.077.929-1.936,1.65-2.9,2.476-.642.413-1.182.927-1.825,1.339V23.223ZM342.033,15.8c-.211-.1-.319-.208-.537-.311a6.405,6.405,0,0,0-3.438-.927h-9.452v2.061h9.452a4.669,4.669,0,0,1,2.364.516,2.807,2.807,0,0,1,.751.929,2.064,2.064,0,0,1,.109,1.133,1.5,1.5,0,0,1-.642.927v.1l-7.736,6.7-.859.722.75.721,8.488,8.971h-4.943l-7.733-7.733V32.5l6.554,6.6.214.308h6.659V35.184l-6.982-7.425,6.982-6.082h0Zm-15.577,5.67v3.5c.754-.619,1.5-1.133,2.15-1.752V25.8c-.646.62-1.4,1.238-2.042,1.754l2.042,2.061V32.5l-2.15-2.166v9.072h-9.235V20.542l.32-.308,5.694-5.361.646-.31h4.726v2.061h-4.3l-5.048,4.743V37.349h5.157V29.307h0v-9.8h4.189v1.959Z" transform="translate(-2.535 -4.453)" fill="#fff"/>
              <path id="Path_15612" data-name="Path 15612" d="M354.26,37.349h5.48l5.157.1-.109-3.506h-7.95a11.034,11.034,0,0,1-2.579-.309V31.471a6.764,6.764,0,0,0,2.579.515h10.1v7.423h-10.2a19.347,19.347,0,0,1-2.473-.1V37.349Zm0-17.012a8.781,8.781,0,0,1,2.473-.412h3.119l3.435-3.3H354.26V14.666h1.185l10.312-.1h2.47l-1.716,1.753-5.589,5.362-.214.308h-3.975a4.608,4.608,0,0,0-2.473.516Zm-9.989,10.825c1.186,2.269,1.937,3.507,3.547,4.64,1.4.825,3.326,1.342,6.442,1.548v1.959c-3.65-.207-5.9-.825-7.624-1.856a11.327,11.327,0,0,1-3.867-4.847,11.34,11.34,0,0,1-.968-2.681h0c0-.617-.109-1.134-.109-1.649v-.1A10.236,10.236,0,0,1,341.8,25.6h0a9.114,9.114,0,0,1,.431-2.372h0a12.122,12.122,0,0,1,5.049-6.288h0a15.006,15.006,0,0,1,6.979-2.269v1.958a13.744,13.744,0,0,0-5.9,1.959h0a10.4,10.4,0,0,0-4.084,5.259h0a6.463,6.463,0,0,0-.428,1.959h0a16.574,16.574,0,0,0-.109,2.371v0c0,.517.109.929.109,1.341h0c.106.412.32,1.237.428,1.649Zm9.989,2.476V31.471a4.372,4.372,0,0,1-2.79-4.021v-.413a6.273,6.273,0,0,1,1.61-3.712h0a4.126,4.126,0,0,1,1.179-.825V20.336a5.9,5.9,0,0,0-2.575,1.548h0a7.668,7.668,0,0,0-2.256,5.05v.516A6.411,6.411,0,0,0,354.26,33.637Z" transform="translate(-2.195 -4.453)" fill="#fff"/>
              <path id="Path_15613" data-name="Path 15613" d="M278.546,21.477Z" transform="translate(-3.074 -4.357)" fill="#fff"/>
              <path id="Path_15614" data-name="Path 15614" d="M73.538,14.562h5.908A6.167,6.167,0,0,1,83.1,15.8a4.023,4.023,0,0,1,1.719,3.092V33.327l-.322.31L78.8,39l-.754.309H73.538V37.349h4.083L82.67,32.5V18.893a2.1,2.1,0,0,0-.86-1.546,3.629,3.629,0,0,0-2.364-.825H73.538V14.562Zm0,19.383h4.083V24.77L75.9,25.9l-2.364,1.753v2.474l1.933-1.341v3.093H73.538v2.062Zm0-10.516.859-.721h0c1.074-.722,1.4-1.341,1.074-2.061-.322-.516-.859-.721-1.933-.721v1.649h0ZM72.25,21.884H62.045V14.562H73.538v1.959H64.086v3.4h9.452v1.649h0v1.856l-.322.207h0L61.4,32.6h0V30.027l10.529-7.938h0l.322-.205Zm1.288,17.424H63.118a3.515,3.515,0,0,1-1.719-.413V36.523c.323.205.537.412.862.62a2.105,2.105,0,0,0,.857.205h10.42v1.959Zm0-11.651L67.525,32.09l.642,1.856h5.371V31.883H71.177l2.361-1.753ZM61.4,38.895h-.106a8.075,8.075,0,0,1-1.5-1.134h0a5.591,5.591,0,0,1-1.287-3.4,4.362,4.362,0,0,1,1.4-3.2l.428-.1h-.214L61.4,30.027V32.6h0l-.106.1h0a.1.1,0,0,0-.108.1,2.061,2.061,0,0,0-.646,1.548A3.2,3.2,0,0,0,61.4,36.42h0v2.474Z" transform="translate(-6.142 -4.453)" fill="#fff"/>
              <path id="Path_15615" data-name="Path 15615" d="M45.741,19.925h4.943V37.349h5.154V16.522h-10.1V14.562H57.88V39.308H48.534V21.884H45.741Zm-10.1,17.424H40.8V19.925h4.94v1.959h-2.9V39.308H33.6V14.562H45.741v1.959h-10.1V37.349Z" transform="translate(-6.489 -4.453)" fill="#fff"/>
              <path id="Path_15616" data-name="Path 15616" d="M133.955,35.184l1.933,2.164h5.266l-7.2-7.733v-2.99l10.315,11.032,1.61,1.65H134.923L134.6,39l-.646-.825v-2.99Zm0-12.888,5.588-5.774h-4.835a5.946,5.946,0,0,0-.754.825V14.562h10.315l-1.611,1.65-8.7,8.969ZM128.369,29.2h0l5.586,5.983v2.99l-7.087-7.63h0a6.5,6.5,0,0,1-2.256-4.64,5.941,5.941,0,0,1,1.93-4.227h0c1.185-1.136,2.364-2.27,3.438-3.4l3.547-3.4.322-.31h.106v2.785c-.859.722-1.61,1.546-2.47,2.371-1.182,1.134-2.255,2.166-3.434,3.3a4.527,4.527,0,0,0-1.4,2.887,4.916,4.916,0,0,0,1.719,3.3Zm5.586.414v-2.99L133.2,25.9l.751-.722V22.3l-2.9,2.886-.646.722.646.619Z" transform="translate(-5.22 -4.453)" fill="#fff"/>
              <path id="Path_15617" data-name="Path 15617" d="M120.965,37.349h2.576V25.6h0V16.522h-2.576V14.562h4.62v7.322h0v7.938h0v9.486h-4.62Zm-2.578-20.827V37.349h2.578v1.959h-4.62V14.562h4.62v1.959Z" transform="translate(-5.335 -4.453)" fill="#fff"/>
              <path id="Path_15618" data-name="Path 15618" d="M114.2,15.387l.32.205a3.729,3.729,0,0,1,1.077,2.477,4.069,4.069,0,0,1-1.291,2.886l-.106.1h0c0,.1-.108.205-.217.308v-.1L102.485,31.883V29.1l10.1-9.176v-.1h0l.108-.1h0a2.651,2.651,0,0,0,.86-1.649,2.149,2.149,0,0,0-.537-1.134c-.323-.1-.54-.207-.86-.311a6.493,6.493,0,0,0-1.61-.1h-8.059V14.562h8.059a12.143,12.143,0,0,1,2.147.1,10.209,10.209,0,0,1,1.5.721Zm-11.711,8.454c.323-.309.751-.619,1.074-.927h0c.86-.825,1.074-1.548.754-2.164a1.842,1.842,0,0,0-1.828-.825v1.649h0v2.268Zm0,8.042-1.824,1.65V30.853l1.824-1.753v2.783Zm-1.824-17.321h1.824v1.959h-1.824V14.562Zm1.824,5.362v1.649h0v2.268c-.645.619-1.182,1.133-1.824,1.753V22.811q.479-.465.965-.927h-.965V19.925h1.824Zm-1.824,13.609-5.586,5.154v5.877l-.326.31-7.3,6.7-1.719,1.546V20.439l.32-.205,5.588-5.466.751-.205h8.273v1.959H92.816l-5.048,4.742V48.482l5.157-4.741V37.863l.322-.309,7.414-6.7v2.681Zm0-13.609H92.925V32.811l1.825-1.65c1.936-1.854,3.975-3.71,5.911-5.566V22.811c-1.937,1.754-3.761,3.505-5.586,5.258V21.884h5.586Z" transform="translate(-5.762 -4.453)" fill="#fff"/>
              <path id="Path_15619" data-name="Path 15619" d="M291.865,15.286l.322.205a3.947,3.947,0,0,1,1.077,2.476,4.476,4.476,0,0,1-1.29,2.99l-.109.1c-.106,0,0-.1,0-.1h0c0,.1-.106.207-.214.309h0L280.157,31.885V29.1l10.1-9.279h0v-.1h0c.108,0,.108,0,.108-.1h0a2.257,2.257,0,0,0,.86-1.545,1.846,1.846,0,0,0-.54-1.134,1.451,1.451,0,0,0-.859-.311,5.461,5.461,0,0,0-1.61-.206h-8.056V14.461h8.056a10.573,10.573,0,0,1,2.15.207,4.615,4.615,0,0,1,1.5.619Zm-11.708,8.557c.323-.309.751-.722,1.074-1.031h0c.86-.825,1.077-1.547.754-2.164a2.054,2.054,0,0,0-1.828-.825v1.753h0Zm0,8.042-1.824,1.65V30.751l1.824-1.649v2.783Zm-1.824-17.424h1.824v1.959h-1.824V14.461Zm1.824,5.362v1.753h0v2.268c-.645.515-1.182,1.133-1.824,1.65V22.812c.319-.31.642-.721.965-1.03h-.965V19.822h1.824Zm-1.824,13.713-5.589,5.154v5.877l-.319.207-7.305,6.7L263.4,53.124V20.44l.32-.309,5.588-5.362.751-.308h8.273v1.959h-7.844l-5.049,4.846V48.483l5.157-4.845V37.864l.32-.309,7.416-6.8v2.785Zm0-13.713H270.6V32.71l1.828-1.65c1.933-1.856,3.972-3.71,5.908-5.566V22.812c-1.936,1.754-3.761,3.4-5.589,5.156V21.782h5.589Z" transform="translate(-3.285 -4.454)" fill="#fff"/>
              <path id="Path_15620" data-name="Path 15620" d="M19.473,37.349H24.95l5.158.1V33.946h-7.95a11.274,11.274,0,0,1-2.685-.309V31.471a7.317,7.317,0,0,0,2.685.515H32.15v7.423H21.944a19.289,19.289,0,0,1-2.47-.1V37.349Zm0-17.012a9.47,9.47,0,0,1,2.47-.412h3.115l3.439-3.3H19.473V14.666h1.182l10.312-.1h2.47l-1.719,1.753-5.477,5.362-.322.308H21.944a4.822,4.822,0,0,0-2.47.516ZM9.482,31.161c1.182,2.269,1.936,3.507,3.547,4.64,1.4.825,3.33,1.342,6.445,1.548v1.959c-3.652-.207-5.908-.825-7.627-1.856A11.344,11.344,0,0,1,7.98,32.6a7.783,7.783,0,0,1-.86-2.681h0a9.794,9.794,0,0,1-.214-1.649v-.1A10.388,10.388,0,0,1,7.012,25.6h0a17.956,17.956,0,0,1,.431-2.372h0a12.124,12.124,0,0,1,5.048-6.288h0a15.01,15.01,0,0,1,6.982-2.269v1.958a12.831,12.831,0,0,0-5.8,1.959h0a10.07,10.07,0,0,0-4.192,5.259h0A13.028,13.028,0,0,0,9.054,25.8h0a16.574,16.574,0,0,0-.109,2.371v0a4.993,4.993,0,0,0,.217,1.341h0a9.092,9.092,0,0,0,.32,1.649Zm9.992,2.476V31.471a4.37,4.37,0,0,1-2.792-4.021v-.413A6.357,6.357,0,0,1,18.4,23.326h0a2.717,2.717,0,0,1,1.074-.825V20.336a6.565,6.565,0,0,0-2.578,1.548h0a8.222,8.222,0,0,0-2.255,5.05v.516A6.536,6.536,0,0,0,19.473,33.637Z" transform="translate(-6.861 -4.453)" fill="#fff"/>
            </g>
          </g>
        </g>
      </g>
    </g>
  </g>
</svg>
