<svg xmlns="http://www.w3.org/2000/svg" width="82" height="41" viewBox="0 0 82 41"><g><g><path fill="#fff" d="M40.996 36.53c3.405-.096 6.107-.864 8.415-2.305 2.903-1.346 2.601-4.135-.405-4.903h-8.01v-6.633h10.617c2.702 0 3.703 2.308 4.308 4.71 2.303-4.901 1.698-9.708-3.509-9.708l-11.416.097v-6.92h37.658c1.203-.193 2.302-.579 3.205-1.154-2.002 4.901-4.21 7.593-6.413 7.881h-13.42c.404 1.827.404 3.557.1 5.286h9.816c1.302-.192 2.705-.383 4.007-1.056-2.005 4.901-3.906 7.593-5.61 7.497H60.023c-4.305 7.787-10.612 11.054-18.327 11.343h-.7zM24.373 32.88h6.006c2.905 1.92 6.11 3.555 9.917 3.651h.7v4.135c-7.31.095-12.618-3.365-16.623-7.786zM40.996 4.33c3.605 0 6.911.962 9.915 3.267h6.309C54.014 3.85 49.71.87 43.3.198 42.496.1 41.797.006 40.995.006zm-1.102 0c-3.906 0-6.61.962-8.612 2.883-1.704 1.635.199 3.653 1.903 3.653h7.811v6.92h-9.714c-2.904 0-4.407-2.019-5.11-4.806-2.201 5-1.9 9.708 4.41 9.708h10.414v6.633H12.052c-1.8.096-3.706-2.498-5.708-7.69 1.201.673 2.506 1.25 3.808 1.346l10.114-.097c-.5-1.73-.5-3.46-.203-5.286H6.047c-2.104-.672-4.106-3.557-5.91-8.074a11.435 11.435 0 0 0 3.506 1.346h18.523C26.673 4.331 32.384-.186 40.996.006V4.33z"/></g></g></svg>