<svg id="speedometer" xmlns="http://www.w3.org/2000/svg" width="117.017" height="117.017" viewBox="0 0 117.017 117.017">
  <path id="Path_15748" data-name="Path 15748" d="M89.072,98.143A49.072,49.072,0,1,0,40,49.072,49.127,49.127,0,0,0,89.072,98.143Zm0-94.369a45.3,45.3,0,1,1-45.3,45.3A45.35,45.35,0,0,1,89.072,3.775Zm0,0" transform="translate(-30.563)" fill="#fff"/>
  <path id="Path_15749" data-name="Path 15749" d="M113.522,115.044A41.522,41.522,0,1,0,72,73.522,41.569,41.569,0,0,0,113.522,115.044ZM83.157,84.058,78.008,86.19A37.523,37.523,0,0,1,75.869,75.41h9.343V71.635H75.871A37.412,37.412,0,0,1,78.01,60.854l5.149,2.133L84.6,59.5l-5.145-2.131a37.864,37.864,0,0,1,6.115-9.129l6.6,6.6,2.669-2.669-6.6-6.6a37.817,37.817,0,0,1,9.127-6.115L99.5,44.6l3.488-1.445-2.133-5.149a37.508,37.508,0,0,1,10.779-2.135v9.341h3.775V35.871A37.412,37.412,0,0,1,126.19,38.01l-2.133,5.149,3.488,1.446,2.131-5.145a37.817,37.817,0,0,1,9.127,6.115l-6.6,6.6,2.669,2.669,6.6-6.6a37.775,37.775,0,0,1,6.115,9.129L142.443,59.5l1.445,3.488,5.149-2.133a37.524,37.524,0,0,1,2.139,10.781h-9.343v3.775h9.341a37.413,37.413,0,0,1-2.139,10.781l-5.149-2.133-1.446,3.488,5.145,2.131a37.761,37.761,0,0,1-5.437,8.384h-19.38a9.336,9.336,0,0,0-1.874-3.931l-3.433-37.768a3.954,3.954,0,0,0-7.876-.008l-3.435,37.77a9.346,9.346,0,0,0-1.874,3.931H84.895a37.761,37.761,0,0,1-5.437-8.384L84.6,87.544Zm30.366,10.226a5.654,5.654,0,0,1,5.315,3.775H108.209A5.65,5.65,0,0,1,113.522,94.283Zm-3.308-3.144L113.344,56.7a.182.182,0,0,1,.356,0l3.131,34.439a9,9,0,0,0-6.617,0ZM88.637,101.833h49.768a37.527,37.527,0,0,1-49.768,0Zm0,0" transform="translate(-55.014 -24.451)" fill="#fff"/>
  <path id="Path_15750" data-name="Path 15750" d="M289.072,304v41.522H285.3V320.986H273.973v24.536H270.2v-15.1H258.874v15.1H255.1v-7.549H243.775v7.549H240V349.3h60.4V304Zm-11.324,20.761h3.775v20.761h-3.775Zm-15.1,9.437h3.775v11.324h-3.775Zm-15.1,7.549h3.775v3.775h-3.775Zm49.072,3.775h-3.775V307.775h3.775Zm0,0" transform="translate(-183.379 -232.28)" fill="#fff"/>
  <path id="Path_15751" data-name="Path 15751" d="M27,400.126,22.166,384H0v3.775H19.357L25.844,409.4l7.31-12.185H45.3v-3.775H31.017Zm0,0" transform="translate(0 -293.406)" fill="#fff"/>
  <path id="Path_15752" data-name="Path 15752" d="M32,432h3.775v3.775H32Zm0,0" transform="translate(-24.451 -330.082)" fill="#fff"/>
  <path id="Path_15753" data-name="Path 15753" d="M0,432H3.775v3.775H0Zm0,0" transform="translate(0 -330.082)" fill="#fff"/>
  <path id="Path_15754" data-name="Path 15754" d="M64,432h3.775v3.775H64Zm0,0" transform="translate(-48.901 -330.082)" fill="#fff"/>
</svg>
