<svg xmlns="http://www.w3.org/2000/svg" width="113" height="96" viewBox="0 0 113 96"><g><g><g><path fill="#fff" d="M32.683 66.422l-11.37 11.37a.81.81 0 0 1-1.143 0l-4.4-4.4a1.302 1.302 0 1 0-1.842 1.841l4.4 4.401c.666.666 1.54.998 2.414.998.874 0 1.748-.332 2.413-.998l11.37-11.37a1.302 1.302 0 1 0-1.842-1.842z"/></g></g><g><g><path fill="#fff" d="M65.647 25.154c.662.002 1.275.35 1.617.915l2.84 4.733h-27.24l2.84-4.733a1.9 1.9 0 0 1 1.617-.915zm7.782 9.414h7.822a13.101 13.101 0 0 1 9.227 3.766H80.96a1.883 1.883 0 0 0-1.602 2.871l6.825 11.061c.337.547.93.885 1.574.894l16.171.255 1.896.564a4.615 4.615 0 0 1 3.378 4.37 4.466 4.466 0 0 1-4.46 4.46h-42.61a9.437 9.437 0 0 1-6.999-3.115L41.555 44.605a1.885 1.885 0 0 0-1.035-.587L3.766 36.786v-2.218zM93.61 42.1l5.978 7.47-10.744-.16-4.51-7.31zm.529 30.125H65.898v-5.649H94.14zM4.485 49.63h-.72v-9.007l4.754.941zm-.72-30.125h2.461l4.237 11.297H3.766zm46.98-11.603c-.309.202-.67.308-1.04.307H5.65a1.883 1.883 0 1 1 0-3.766h44.056c.372 0 .735.11 1.044.317l2.346 1.566zM62.23 4.765a1.876 1.876 0 0 1 1.031-.322h44.058a1.883 1.883 0 1 1 0 3.766H63.262c-.371 0-.735-.11-1.043-.317l-2.346-1.566zm-2.094 6.268a5.629 5.629 0 0 0 3.126.941h44.058a5.648 5.648 0 0 0 0-11.296H63.262a5.615 5.615 0 0 0-3.133.941l-3.645 2.447-3.653-2.447a5.623 5.623 0 0 0-3.126-.941H5.65a5.648 5.648 0 1 0 0 11.296h44.056a5.621 5.621 0 0 0 3.134-.941l1.762-1.19v11.545h-7.28a5.68 5.68 0 0 0-4.845 2.743l-4.003 6.67H14.484l-5.189-13.84a1.883 1.883 0 0 0-1.764-1.221H1.882C.842 15.74 0 16.583 0 17.622v33.89c0 1.04.843 1.884 1.882 1.884H5.65c.713 0 1.366-.403 1.684-1.041l5.02-10.044 26.824 5.272 13.165 14.63a13.203 13.203 0 0 0 9.79 4.362v5.648h-3.321a4.895 4.895 0 0 1-4.398-2.724l-3.37 1.683a8.66 8.66 0 0 0 7.768 4.807h42.416a8.659 8.659 0 0 0 7.787-4.807l-3.37-1.683a4.893 4.893 0 0 1-4.417 2.724h-3.321v-5.648h6.836a8.227 8.227 0 0 0 1.994-16.207l-.646-.162a4.5 4.5 0 0 1-2.404-1.542l-9.2-11.502a16.865 16.865 0 0 0-13.234-6.36h-6.757l-4.003-6.673a5.687 5.687 0 0 0-4.844-2.741h-7.281V9.844z"/></g><g><path fill="#fff" d="M70.539 42.1l5.02 7.53h-6.777l-5.021-7.53zm-4.325 10.458c.35.524.937.838 1.567.838h11.296a1.882 1.882 0 0 0 1.567-2.928l-7.531-11.296a1.882 1.882 0 0 0-1.567-.838H60.25a1.883 1.883 0 0 0-1.567 2.927z"/></g></g><g><path fill="#fff" d="M38.11 87.554c-3.717 3.723-8.648 5.773-13.884 5.773-3.035 0-5.948-.676-8.66-2.01-.61-.301-1.309-.372-1.966-.2l-8.64 2.27a.209.209 0 0 1-.22-.062.2.2 0 0 1-.047-.216l2.557-7.656a2.84 2.84 0 0 0-.213-2.268 19.572 19.572 0 0 1-2.43-9.143c-.08-5.26 1.92-10.237 5.634-14.012 3.721-3.783 8.678-5.87 13.958-5.878h.027a19.51 19.51 0 0 1 13.857 5.72 19.441 19.441 0 0 1 5.765 13.839c.007 5.214-2.03 10.13-5.738 13.843zm1.81-29.528a22.097 22.097 0 0 0-15.693-6.479h-.032a22.008 22.008 0 0 0-8.716 1.797 22.233 22.233 0 0 0-7.095 4.86C4.18 62.478 1.912 68.117 2.003 74.08a22.18 22.18 0 0 0 2.755 10.364.23.23 0 0 1 .021.183l-2.556 7.656a2.821 2.821 0 0 0 3.398 3.623l8.64-2.27a.221.221 0 0 1 .155.016 22.028 22.028 0 0 0 9.81 2.279c5.932 0 11.517-2.322 15.727-6.537 4.2-4.206 6.508-9.778 6.5-15.688-.009-5.927-2.329-11.496-6.532-15.681z"/></g></g></svg>