<svg xmlns="http://www.w3.org/2000/svg" width="112.97" height="95.322" viewBox="0 0 112.97 95.322">
  <g id="Group_257" data-name="Group 257" transform="translate(-405 -588.678)">
    <g id="helicopter-2" transform="translate(405 588.186)">
      <path id="Path_15731" data-name="Path 15731" d="M60.136,10.847a5.629,5.629,0,0,0,3.126.942H107.32a5.648,5.648,0,0,0,0-11.3H63.262a5.615,5.615,0,0,0-3.133.942L56.484,3.881,52.831,1.434A5.623,5.623,0,0,0,49.705.492H5.649a5.648,5.648,0,1,0,0,11.3H49.705a5.621,5.621,0,0,0,3.133-.942L54.6,9.657V21.2h-7.28a5.68,5.68,0,0,0-4.845,2.743l-4,6.671H14.484L9.3,16.776a1.883,1.883,0,0,0-1.764-1.222H1.882A1.882,1.882,0,0,0,0,17.436v33.89A1.883,1.883,0,0,0,1.882,53.21H5.649a1.883,1.883,0,0,0,1.685-1.041l5.02-10.043L39.177,47.4,52.342,62.027a13.2,13.2,0,0,0,9.79,4.363v5.648H58.811a4.895,4.895,0,0,1-4.4-2.724L51.042,71A8.66,8.66,0,0,0,58.811,75.8h42.416A8.659,8.659,0,0,0,109.014,71l-3.37-1.683a4.893,4.893,0,0,1-4.417,2.724H97.906V66.39h6.836a8.226,8.226,0,0,0,1.994-16.207l-.646-.162a4.5,4.5,0,0,1-2.4-1.542l-9.2-11.5a16.865,16.865,0,0,0-13.234-6.36H74.5l-4-6.673A5.687,5.687,0,0,0,65.648,21.2H58.367V9.659ZM62.23,4.579a1.876,1.876,0,0,1,1.031-.322h44.058a1.883,1.883,0,1,1,0,3.766H63.262a1.874,1.874,0,0,1-1.043-.316L59.873,6.14ZM50.745,7.716a1.883,1.883,0,0,1-1.04.307H5.649a1.883,1.883,0,1,1,0-3.766H49.705a1.874,1.874,0,0,1,1.043.316l2.346,1.567ZM3.766,19.32H6.226l4.237,11.3h-6.7Zm.719,30.125H3.766V40.437l4.754.942ZM94.14,72.038H65.9V66.39H94.14Zm-.529-30.125,5.978,7.47-10.743-.16-4.511-7.31ZM73.429,34.382h7.823a13.1,13.1,0,0,1,9.226,3.766H80.96a1.883,1.883,0,0,0-1.6,2.871l6.825,11.061a1.883,1.883,0,0,0,1.574.894l16.171.254,1.9.565a4.615,4.615,0,0,1,3.378,4.37,4.466,4.466,0,0,1-4.46,4.46H62.132a9.437,9.437,0,0,1-7-3.116L41.555,44.419a1.885,1.885,0,0,0-1.036-.588L3.766,36.6V34.382Zm-7.782-9.414a1.9,1.9,0,0,1,1.617.915L70.1,30.616H42.864L45.7,25.883a1.9,1.9,0,0,1,1.617-.915Zm0,0" fill="#fff"/>
      <path id="Path_15732" data-name="Path 15732" d="M305.441,206.713a1.883,1.883,0,0,0,1.567.837h11.3a1.883,1.883,0,0,0,1.567-2.927l-7.531-11.3a1.882,1.882,0,0,0-1.567-.838h-11.3a1.883,1.883,0,0,0-1.567,2.927Zm4.325-10.459,5.021,7.531h-6.778l-5.021-7.531Zm0,0" transform="translate(-239.227 -154.34)" fill="#fff"/>
    </g>
    <path id="Path_15733" data-name="Path 15733" d="M37.922,6.478A22.1,22.1,0,0,0,22.228,0H22.2A22.008,22.008,0,0,0,13.48,1.8,22.233,22.233,0,0,0,6.385,6.656,22.121,22.121,0,0,0,2.759,32.9a.23.23,0,0,1,.022.183L.224,40.737a2.824,2.824,0,0,0,3.4,3.623l8.641-2.27a.221.221,0,0,1,.155.016,22.211,22.211,0,0,0,25.536-4.259,22.136,22.136,0,0,0-.032-31.369ZM36.111,36.007a19.608,19.608,0,0,1-22.543,3.762,2.826,2.826,0,0,0-1.966-.2L2.96,41.84a.209.209,0,0,1-.218-.062.2.2,0,0,1-.047-.216l2.556-7.657a2.841,2.841,0,0,0-.213-2.268A19.614,19.614,0,0,1,22.2,2.6h.027a19.562,19.562,0,0,1,13.884,33.4Zm0,0" transform="translate(406.999 639.547)" fill="#fff"/>
  </g>
</svg>
