<svg xmlns="http://www.w3.org/2000/svg" width="98.913" height="123.59" viewBox="0 0 98.913 123.59">
  <g id="train" transform="translate(-8 -2.025)">
    <path id="Path_15755" data-name="Path 15755" d="M94.755,72.655,73.324,61.321A18.6,18.6,0,0,0,79.3,53.079l5.564-2.885a6.206,6.206,0,0,0,3.5-5.564V43.187a6.072,6.072,0,0,0-6.182-6.182H80.124V29.587l6.8-8.655a6.194,6.194,0,0,0-1.03-8.655,3.321,3.321,0,0,0-1.442-.824L66.936,4.034a24.846,24.846,0,0,0-19.577,0L29.843,11.453a6.226,6.226,0,0,0-3.3,8.037,5.165,5.165,0,0,0,.824,1.442l6.8,8.655v7.418H32.11a6.072,6.072,0,0,0-6.182,6.182v1.649a6.073,6.073,0,0,0,3.5,5.564L35,53.285a15.93,15.93,0,0,0,5.976,8.243L19.54,72.861A22.292,22.292,0,0,0,8,92.644v32.971h98.913V92.644A22.233,22.233,0,0,0,94.755,72.655ZM80.948,69.976,68.172,79.455l-7.006-9.891a6.19,6.19,0,0,0,2.267-1.236L69.615,64ZM63.433,79.868,60.548,84.4H54.572l-3.091-4.534,5.976-8.449ZM82.185,41.127a1.947,1.947,0,0,1,2.061,2.061v1.649a1.98,1.98,0,0,1-1.236,1.855l-2.885,1.442V41.127ZM31.9,46.69a2.368,2.368,0,0,1-1.236-1.855V43.187a1.947,1.947,0,0,1,2.061-2.061h2.061v7.006ZM31.08,18.253a2.036,2.036,0,0,1,.412-2.885c.206-.206.206-.206.412-.206L49.42,7.743a20.336,20.336,0,0,1,16.279,0l17.516,7.418a2.045,2.045,0,0,1,1.03,2.679.719.719,0,0,1-.206.412L77.033,26.7H37.88Zm42.656,12.57-.618.824A14.485,14.485,0,0,1,61.99,37.005H52.511a14.1,14.1,0,0,1-11.746-6.182ZM38.91,48.133V35.357A18.571,18.571,0,0,0,52.3,41.127h9.479A18.539,18.539,0,0,0,75.8,34.532V47.927a12.226,12.226,0,0,1-5.358,10.1l-9.685,6.8a6.213,6.213,0,0,1-7.006,0l-9.685-6.8a12.492,12.492,0,0,1-5.152-9.891ZM45.3,64l6.182,4.327a22.478,22.478,0,0,0,2.267,1.236l-7.006,9.891L33.965,69.976Zm-12.57,57.493V100.887H28.607v20.607H12.121V92.644a18.675,18.675,0,0,1,9.891-16.486l8.037-4.327L35.2,75.746l9.479,45.747Zm7.418-41.832,7.418,5.564L48.8,83.371l2.267,3.5L46.741,112.22Zm9.479,41.832L55.19,88.522h4.74l5.564,32.971Zm14.219-34.62,2.267-3.5,1.236,1.855,7.418-5.564-6.8,32.765Zm38.947,34.62H86.306V100.887H82.185v20.607H70.233l9.479-45.541,5.152-3.915L92.9,76.364a18.837,18.837,0,0,1,9.891,16.486Z" transform="translate(0 0)" fill="#fff"/>
    <path id="Path_15756" data-name="Path 15756" d="M39.658,6H33.682A6.072,6.072,0,0,0,27.5,12.182a6.072,6.072,0,0,0,6.182,6.182h5.976a6.072,6.072,0,0,0,6.182-6.182A6.072,6.072,0,0,0,39.658,6Zm1.649,7.418a1.874,1.874,0,0,1-1.649.824H33.682a1.947,1.947,0,0,1-2.061-2.061,1.947,1.947,0,0,1,2.061-2.061h5.976a1.947,1.947,0,0,1,2.061,2.061A1.514,1.514,0,0,1,41.307,13.418Z" transform="translate(20.683 4.216)" fill="#fff"/>
  </g>
</svg>
