<svg xmlns="http://www.w3.org/2000/svg" width="15.16" height="7.573"><path data-name="Контур 15784" d="M6.137 2.006c-.311 0-.674-.38-.346-.674a2.108 2.108 0 0 1 1.59-.536h.19a2.969 2.969 0 0 1 1.85.605H10.6A3.774 3.774 0 0 0 8.021.036c-.121-.018-.45-.03-.45-.03a3.987 3.987 0 0 0-3.471 2H.66a3 3 0 0 1-.657-.242c.328.83.709 1.366 1.089 1.5h2.593a2.113 2.113 0 0 0 .035.985l-1.867.017a2.156 2.156 0 0 1-.709-.242c.363.968.726 1.435 1.054 1.417h6.845c.553.138.605.657.069.916a3.055 3.055 0 0 1-1.556.432h-.138a3.521 3.521 0 0 1-1.832-.674H4.48a4.009 4.009 0 0 0 3.077 1.452h.138A3.8 3.8 0 0 0 11.1 5.464h1.919c.311.017.674-.484 1.037-1.383a2.246 2.246 0 0 1-.743.19H11.5a2.7 2.7 0 0 0-.017-.985h2.489c.415-.052.812-.553 1.193-1.469a1.5 1.5 0 0 1-.588.207zm4.218 3.06c-.1-.449-.294-.882-.8-.882H5.648c-1.175 0-1.227-.882-.812-1.8.138.519.415.9.951.9h1.8l2.109-.017c.97.001 1.073.883.658 1.799z" fill="#fff"/></svg>