<svg enable-background="new 0 0 168 92.7" viewBox="0 0 168 92.7" xmlns="http://www.w3.org/2000/svg"><path d="m118.5 45.3c.9 0 1.5-.7 1.5-1.5v-14h7.7c2.6 0 4.6-2.1 4.6-4.6v-18.6c0-2.6-2.1-4.6-4.6-4.6h-18.5c-2.6 0-4.6 2.1-4.6 4.6v18.5c0 2.6 2.1 4.6 4.6 4.6h7.7v12.4h-12.4v-6.1c0-.6-.3-1.1-.8-1.4l-17-8.8c-.4-.2-1-.2-1.4 0l-17 8.8c-.5.3-.8.8-.8 1.4v6.2h-12.4v-12.4h7.7c2.6 0 4.6-2.1 4.6-4.6v-18.6c0-2.6-2.1-4.6-4.6-4.6h-18.5c-2.6 0-4.6 2.1-4.6 4.6v18.5c0 2.6 2.1 4.6 4.6 4.6h7.7v13.9c0 .9.7 1.5 1.5 1.5h13.9v6.2h-13.8c-.9 0-1.5.7-1.5 1.5v13.9h-7.7c-2.6 0-4.6 2.1-4.6 4.6v18.5c0 2.6 2.1 4.6 4.6 4.6h18.5c2.6 0 4.6-2.1 4.6-4.6v-18.3c0-2.6-2.1-4.6-4.6-4.6h-7.7v-12.4h12.4v6.2c0 .9.7 1.5 1.5 1.5h34c.9 0 1.5-.7 1.5-1.5v-6.2h12.4v12.4h-7.7c-2.6 0-4.6 2.1-4.6 4.6v18.5c0 2.6 2.1 4.6 4.6 4.6h18.5c2.6 0 4.6-2.1 4.6-4.6v-18.5c0-2.6-2.1-4.6-4.6-4.6h-7.8v-13.9c0-.9-.7-1.5-1.5-1.5h-13.9v-6.2zm-1.6-40.2h3.1v7.1l-.5-.5c-.6-.6-1.6-.6-2.2 0l-.5.5v-7.1zm-9.2 20.1v-18.6c0-.9.7-1.5 1.5-1.5h4.6v10.8c0 .9.7 1.5 1.5 1.5.4 0 .8-.2 1.1-.5l2-2 2 2c.6.6 1.6.6 2.2 0 .3-.3.5-.7.5-1.1v-10.7h4.6c.9 0 1.5.7 1.5 1.5v18.5c0 .9-.7 1.5-1.5 1.5h-18.5c-.9.1-1.5-.6-1.5-1.4zm-55.7-20.1h3.1v7.1l-.5-.5c-.6-.6-1.6-.6-2.2 0l-.4.5zm-9.3 20.1v-18.6c0-.9.7-1.5 1.5-1.5h4.6v10.8c0 .9.7 1.5 1.5 1.5.4 0 .8-.2 1.1-.5l2-2 2 2c.6.6 1.6.6 2.2 0 .3-.3.5-.7.5-1.1v-10.7h4.6c.9 0 1.5.7 1.5 1.5v18.5c0 .9-.7 1.5-1.5 1.5h-18.4c-.9.1-1.6-.6-1.6-1.4zm9.3 44.8h3.1v7.1l-.5-.5c-.6-.6-1.6-.6-2.2 0l-.4.5zm12.4 1.5v18.5c0 .9-.7 1.5-1.5 1.5h-18.6c-.9 0-1.5-.7-1.5-1.5v-18.5c0-.9.7-1.5 1.5-1.5h4.6v10.8c0 .9.7 1.5 1.5 1.5.4 0 .8-.2 1.1-.5l2-2 2 2c.6.6 1.6.6 2.2 0 .3-.3.5-.7.5-1.1v-10.7h4.6c.9 0 1.6.7 1.6 1.5zm52.5-1.5h3.1v7.1l-.5-.5c-.6-.6-1.6-.6-2.2 0l-.5.5zm12.4 1.5v18.5c0 .9-.7 1.5-1.5 1.5h-18.5c-.9 0-1.5-.7-1.5-1.5v-18.5c0-.9.7-1.5 1.5-1.5h4.6v10.8c0 .9.7 1.5 1.5 1.5.4 0 .8-.2 1.1-.5l2-2 2 2c.6.6 1.6.6 2.2 0 .3-.3.5-.7.5-1.1v-10.7h4.6c.8 0 1.5.7 1.5 1.5zm-43.3-42.6 10.6 5.5h-21.2zm9.3 30.3h-18.6v-15.5h18.5v15.5zm3.1 0v-17c0-.9-.7-1.5-1.5-1.5h-21.7c-.9 0-1.5.7-1.5 1.5v17h-3.1v-21.7h30.9v21.6h-3.1z" fill="#fff" transform="translate(-2 -2)"/></svg>