<?xml version="1.0" encoding="utf-8"?>
<!-- Generator: Adobe Illustrator 24.0.0, SVG Export Plug-In . SVG Version: 6.00 Build 0)  -->
<svg version="1.1" id="Слой_1" xmlns="http://www.w3.org/2000/svg" xmlns:xlink="http://www.w3.org/1999/xlink" x="0px" y="0px"
	 viewBox="0 0 168 92.7" style="enable-background:new 0 0 168 92.7;" xml:space="preserve">
<style type="text/css">
	.st0{fill:#FFFFFF;}
</style>
<g id="list" transform="translate(-64)">
	<path id="Path_15737" class="st0" d="M175.2,6.4h-11.6c-0.6-1.9-2.4-3.2-4.5-3.2h-4.9c-2.6-3.5-7.5-4.2-11-1.7
		c-0.6,0.5-1.2,1-1.7,1.7h-4.9c-2,0-3.8,1.3-4.5,3.2h-11.6c-3.5,0-6.3,2.8-6.3,6.3v73.6c0,3.5,2.8,6.3,6.3,6.3h54.4
		c3.5,0,6.3-2.8,6.3-6.3V12.7C181.5,9.2,178.7,6.4,175.2,6.4z M132.4,15.8c0.6,1.9,2.4,3.2,4.5,3.2h22.4c2,0,3.8-1.3,4.5-3.2h8.5
		v67.4h-48.2V15.8H132.4z M136.8,6.2h5.7c0.5,0,1-0.3,1.3-0.7c1.3-2.3,4.3-3.1,6.6-1.8c0.8,0.4,1.4,1.1,1.8,1.8
		c0.3,0.5,0.8,0.7,1.3,0.7h5.7c0.9,0,1.7,0.8,1.7,1.7v6.4c0,0,0,0,0,0l0,0c0,0.9-0.8,1.7-1.7,1.7h-22.4c-0.9,0-1.7-0.8-1.7-1.7
		c0,0,0,0,0,0c0,0,0,0,0,0V7.9C135.1,7,135.9,6.2,136.8,6.2z M178.5,86.3c0,1.8-1.5,3.3-3.3,3.3h-54.4c-1.8,0-3.3-1.5-3.3-3.3V12.7
		c0-1.8,1.5-3.3,3.3-3.3h11.3v3.4h-9.7c-0.8,0-1.5,0.7-1.5,1.5v0v70.4c0,0.8,0.7,1.5,1.5,1.5l0,0h51.2c0.8,0,1.5-0.7,1.5-1.5l0,0
		V14.3c0-0.8-0.7-1.5-1.5-1.5l0,0h-9.7V9.4h11.3c1.8,0,3.3,1.5,3.3,3.3L178.5,86.3z"/>
	<path id="Path_15738" class="st0" d="M148,12.6c0.8,0,1.5-0.7,1.5-1.5V7.9c0-0.8-0.7-1.5-1.5-1.5c-0.8,0-1.4,0.7-1.5,1.5v3.2
		C146.5,11.9,147.2,12.6,148,12.6z"/>
	<path id="Path_15739" class="st0" d="M149.6,33.4h9.6c0.8,0,1.5-0.6,1.5-1.5c0-0.8-0.6-1.5-1.5-1.5c0,0-0.1,0-0.1,0h-9.6
		c-0.8,0-1.5,0.7-1.5,1.5C148.2,32.8,148.8,33.4,149.6,33.4z"/>
	<path id="Path_15740" class="st0" d="M149.6,39.8h16c0.8,0,1.5-0.7,1.5-1.5c0-0.8-0.7-1.4-1.5-1.5h-16c-0.8,0-1.5,0.7-1.5,1.5
		C148.2,39.2,148.8,39.8,149.6,39.8z"/>
	<path id="Path_15741" class="st0" d="M134.1,39.4c0.6,0.6,1.5,0.6,2.1,0l8-8c0.6-0.6,0.6-1.5,0-2.1c-0.6-0.6-1.5-0.6-2.1,0
		l-6.9,6.9l-3.7-3.7c-0.6-0.6-1.5-0.6-2.1,0c-0.6,0.6-0.6,1.5,0,2.1l0,0L134.1,39.4z"/>
	<path id="Path_15742" class="st0" d="M149.6,49.4h9.6c0.8,0,1.5-0.6,1.5-1.5c0-0.8-0.6-1.5-1.5-1.5c0,0-0.1,0-0.1,0h-9.6
		c-0.8,0-1.5,0.7-1.5,1.5C148.2,48.8,148.8,49.4,149.6,49.4z"/>
	<path id="Path_15743" class="st0" d="M149.6,55.8h16c0.8,0,1.5-0.7,1.5-1.5c0-0.8-0.7-1.4-1.5-1.5h-16c-0.8,0-1.5,0.7-1.5,1.5
		C148.2,55.2,148.8,55.8,149.6,55.8z"/>
	<path id="Path_15744" class="st0" d="M134.1,55.4c0.6,0.6,1.5,0.6,2.1,0l8-8c0.6-0.6,0.6-1.5,0-2.1c-0.6-0.6-1.5-0.6-2.1,0
		l-6.9,6.9l-3.7-3.7c-0.6-0.6-1.5-0.6-2.1,0c-0.6,0.6-0.6,1.5,0,2.1L134.1,55.4z"/>
	<path id="Path_15745" class="st0" d="M149.6,65.4h9.6c0.8,0,1.5-0.6,1.5-1.5c0-0.8-0.6-1.5-1.5-1.5c0,0-0.1,0-0.1,0h-9.6
		c-0.8,0-1.5,0.7-1.5,1.5C148.2,64.8,148.8,65.4,149.6,65.4z"/>
	<path id="Path_15746" class="st0" d="M149.6,71.8h16c0.8,0,1.5-0.7,1.5-1.5c0-0.8-0.7-1.4-1.5-1.5h-16c-0.8,0-1.5,0.7-1.5,1.5
		C148.2,71.2,148.8,71.8,149.6,71.8z"/>
	<path id="Path_15747" class="st0" d="M134.1,71.4c0.6,0.6,1.5,0.6,2.1,0l8-8c0.6-0.6,0.6-1.5,0-2.1s-1.5-0.6-2.1,0l-6.9,6.9
		l-3.7-3.7c-0.6-0.6-1.5-0.6-2.1,0c-0.6,0.6-0.6,1.5,0,2.1l0,0L134.1,71.4z"/>
</g>
</svg>
