<svg enable-background="new 0 0 168 89.9" viewBox="0 0 168 89.9" xmlns="http://www.w3.org/2000/svg"><path clip-rule="evenodd" d="m100.2 26 63.6-2.3 4.1-2.6-67.8 3.2-13 .7-.4-.2h-.7l-.3.2h-.5l-.1-.2-.5-.1.1.2c-.9-1-1.6-.7-2.5-.9l.1-.3 1.4-1.1-.1-.1 2.5-1.6.2-.1 1.7.2 12.1-6.7 22.1-12.3-10-2-12 9.1-14 10.6-2.9 2.2-.1-.1-.9.6h-.8l-.3.2v.2l.2.1-.4.2h-.2l-.3-.1-.1-.1-.2-.3-.2.1v.5l.1.2-.3.2h-.4v-.7c0-.6-.9-.8-1.7-.7-.6.1-1 .3-1.1.7v.7l-.3-.1c-.2-.1-.4-.2-.6-.2-.6-.1-1.3.2-2.2.1l-.5-.4-.2-.1-.3-.2-.5-.2-.5.2-2.8-1.2.8-.3-42.7-19.2-8.6 1.1 53.1 20.1.1.5.5.3.4.1.6.3h.1v.3l.4.3h-.3l-.1.3-.1.2h-1.1l-.4.1-.2.3h-.3l-.1-.1-.2-.1h-.5l-.4.3v.2l-6 .4-.7-.5-63 3.9 10.8 2.1 58.9-5.5.1.2.3.1h.4l.2-.1.2-.1h.4l.4.3h.6l.2-.2h.5l.3.1.6-.1-.3.2c-.2.1-.4.1-.5.3-.7.5-1.3 1.2-1.6 2-.2 0-.4-.1-.6-.1-.5-.1-1-.1-1.4 0-.8-.3-1.8-.1-2.5.3s-1.2 1.1-1.4 1.9c-.5.8-.7 1.7-.6 2.6h-.8l-.5.2c-.7.3-1.4.6-2 1-.7.5-1.4 1.1-2 1.8-.3.4-.6.8-.9 1.2-.1.2-.2.3-.3.5l-.5-.1-.6 1.7c0 .1-.1.1-.1.2-.4.8-.8 1.6-1 2.4-.1 0-.2 0-.3 0-.5 0-.9.4-.9.9 0 .4.3.7.6.9v.8h.3c.1.8.2 1.6.5 2.4l.2.1c.1 1.5.3 3.1.6 4.5l-.7.8c-1.2-.1-2.2.7-2.3 1.9v.2.2c0 .6.3 1.2.6 1.7l1.2 1.6 1.2 1.3.2.2c0 1 .4 2 1.2 2.6l.9.9 2 1.9 1.4 1.4-.3 1.2-.2.1-.9 3.3-.3 1.2v.4c-.3-1-.8-2-1.7-2.2-.3-.1-.6-.1-.9 0-.8.3-1.4 1-1.4 1.8-.1.5-.1 1 0 1.5 0 .6.2 1.2.3 1.7.2.8.5 1.6 1 2.3.2.3.6.6.9.8.4.2.9.2 1.3.1.3-.1.5-.2.7-.4.7-.8.5-2.5.4-3.6v-.1h.6l.9-.3.5-.2 2.7-.8 4-1.2 2.2-.7 1.5-.4.7-.5.5-.1.6-.2c.4.1.9.1 1.4.2s1.2.1 1.8.1h.2.8c2.7.1 5.4-.1 8-.6.4-.1.8-.1 1.2-.2.7-.1 1.3-.3 2-.5.5-.1 1-.3 1.4-.4l.3-.1.5.2.9.1 2.3.3 1 .1.8.1.5 1.4 1.5 4c-.4.2 0 .9.3.9h.7c.2 0 .2-.3.1-.5s-.2-.3-.4-.4l.3-5 .8.1.9.1c0 1.9.2 3.8 1.7 3.9.6.1 1.3-.2 1.6-.7s.6-1.1.7-1.7c.3-1.2.4-2.5.4-3.8.1-.9-.3-1.8-1-2.4-.3-.2-.6-.2-.9-.3-1.1 0-1.8.7-2.1 2.4l-.4-.8.3-.5.2-.6.3-3.9 2.6-.3.8-.1c.1 1 .2 2 .4 2.9l.7-3 .2-1.1.2-1 .9-4.4h.1l.2.2.4.4.3-.1.8 4.6.2 1 .8 4.7c.4-2.2.6-4.4.8-6.6l-2.3-4.8h.4v.1h.5l.1-.3-.1-.2-.2-.3v-.5l.3-.3v-.2l-.2-.3-.1-.2.1-.2v-.2l-.5-.1v.2h-.5l-.1-.9-.2-.3-.2-.5 1-14.6c-.4-.8-.8-1.2-1.2-1.2-.1 0-.1 0-.2 0s-.3.1-.4.2l.2 15.4h-.1l-.2.4-.2.8-.2.2.1.1v.4l-.4.1-.4-.2h-.4v.2l-.9.1-.4.3h-.9l-1.2-.7-.6.1-.1.1-1.3.1-.4.7-.1.2-.4.2c-.2.3-.1.8.1 1.1l-.8 2.8-.6 1.9-1.6-1.7-1.4-1.5-1-1.2c-.4-1.2-.9-2.4-1.5-3.5l.6-.1.3.1h.7 1c1.7-.1 3-1.5 2.9-3.3 0-.6-.3-1.2-.7-1.7l-.9-1.2-.9-1.3v.1c-.1-.2-.2-.3-.2-.4-.1-.3 0-.5-.2-.3l-1-1.2-.7-1.7-.5-.2c-.4-.6-1.1-1.1-1.8-1.4-.1 0-.2 0-.3-.1-.1 0-.3-.1-.4-.1l-.2-2.3h-.2l.1 2.2c-.2 0-.5 0-.7.1-.8.2-1.5.6-2 1.2-.1.2-.3.4-.4.6h-1.1l-.1-.6v-.2l-.2-.1-1.2-.2.1-.4c.3-.6 1-2.6.8-2.9h-2.4c-1.4-2.5-3.1-4.8-5-6.9l-.2-.1v-.6h.4l.4-.1.3-.1v-.3l-.2-.3v-1.4h.2v.3h.3l.9-.5 1.7-.2.2.1h.5l.2-.2h.4l.4.2h1l.2-.2v-.1l6.4-.2-.3.8zm4.8 30.5.5-.4.3-.3.2-.3.6-.5.5-.1.8-.2.2-.3h.7l.2.1h.6l.2.5-.2.3-1.8 2.5c.1 1.2.1 2.3.2 3.3l-.7.1-2.5.2zm-2.8 12.4h.7.1l.2.3.1.1.2.1h.1v.2l-.1.1v.1l.1.1v.1l-.1-.1-.5-.1-.7-.2v-.7zm-.5 4-.1 1.9-.1-4.1h.2zm0-4.1.2.1v.7h-.2l-.2-.1v-.7zm-.5 1.9.2 4.8-1.8-4.8-.1-.3h.1zm-3-4.2.2.1 1.2 1 .7.6c.2.2.5.3.7.3v.8l-1.5-.3-.8-.2-.6-1.6v-.2l-.1-.4zm-1.1-.1h.4l.7 1.9.2.4h-.2l-1-.3-1.3-.4c.5-.5.9-1 1.2-1.6zm-3.6-17.9h.1l1.2 1.4.6.7.4.3.4.2-.1.1-.7.1-.6-.9c-.4-.6-.8-1.2-1.3-1.9zm-20.5-19.8c.5-.5 1.2-.7 1.9-.7.3 0 .5 0 .8.1h.2v.1l-.1.1h-.1c-.2-.1-.5-.1-.8-.1-.7 0-1.4.3-1.9.7-.3.2-.5.5-.7.9.1-.5.4-.8.7-1.1zm-2.7 6.4c0-.2.2-.4.4-.4.8.1 1.5.2 2.2.3s1.2.2 1.7.3c.2.1.4.3.4.5l.6 4.8v.3.2c-.1.2-.4.3-.6.2h-.2l-1.8-.4c-.7-.1-1.3-.2-2-.4l-.3-.1c-.3-.1-.5-.3-.5-.6zm-.5 9.8c0 .3-.2.7-.5.8-.9.2-1.7.3-2.5.3s-1.7.1-2.5.2c-.1 0-.1 0-.2 0-.2-.1-.4-.2-.5-.4 0-.1-.1-.2-.1-.3-.1-1-.1-2-.1-3 0-.2.1-.3.2-.5s.3-.3.5-.4h.1c.8-.2 1.7-.3 2.5-.4s1.5-.1 2.3 0c.4 0 .6.3.6.7.1 1 .1 2 .2 3zm-4.8-9.4c0-.2.1-.3.3-.4.5-.1 1-.2 1.5-.3l.6-.1c.6 0 1.2-.1 1.8-.1.4 0 .4.2.4.5l-.1 5c0 .1-.1.3-.3.3-.8 0-1.6 0-2.4.1h-.4c-.7.1-1.5.2-2.2.4-.1 0-.2 0-.2-.2l.2-.9zm-4 1.3c.2-.1.4-.2.6-.3.6-.3 1.3-.6 2-.9.1-.1.3-.1.4-.2h.1c.1 0 .2.1.1.3l-.1.8-.5 2.8-.3 1.4c-.1.3-.3.6-.6.8l-.3.1-.8.4-2 1h-.2c-.5.3-.5 0-.5-.3l.6-2 1.1-3.5c.1-.2.2-.3.4-.4zm-3.7 16.5h-.3l.3-.3.1-.1.2.4zm1.2-10.2c-.1.4-.2.7-.5 1s-.6.7-.8 1.1c0 0-.1.1-.1.1-.1.1-.1.2-.1 0l.2-.9.8-4.5c.1-.3.2-.6.4-.9 0-.1.1-.1.1-.2.3-.3.6-.7.9-.9.1-.1.3-.2.5-.4s.2 0 .2.1l-.6 2.1-.9 3.1zm3 7.6-.2-.1c-.4-.1-.7-.3-1-.5-.4-.2-.7-.5-.8-.9-.3-.6-.5-1.3-.6-2-.2-.6-.2-1.2-.3-1.8v-.5c0-.4.2-.8.5-1 .1-.1.3-.2.4-.3.6-.4 1.3-.8 2-1.1l.8-.3c.1 0 .4-.1.3.2 0 1.5.1 2.9.3 4.4.1 1 .3 2 .6 3 0 .2.1.4.2.6s0 .4-.2.6c0 0-.1 0-.3 0-.5 0-1.1-.1-1.7-.3zm9.2 19.4-4 1.9-2.7 1.2-.5.3-1 .5-.2-.1-.7.3.1-.4.3-.3 1.3-4.2.1-.3-.1-.1.3-1c.1.1.2.2.2.3.7.8 1.6 1.2 2.6 1.3.9.1 1.8.1 2.7-.1l.9-.2c.1.2.2.4.4.6.1.1.3.2.4.3zm.1-18.9c-1.4.2-2.7.3-4.1.4-.4 0-.8.1-1.2.1-.3 0-.5-.1-.7-.4-.3-.8-.5-1.5-.7-2.3-.1-.5-.3-1.1-.3-1.6-.1-.2 0-.4.3-.5h.1c.8-.1 1.7-.1 2.6-.2s1.7-.2 2.5-.3c.3 0 .6 0 .6.3.2 1.1.5 2.2.9 3.3.1.3.2.6.3.9s0 .3-.3.3zm4.8-3c-.1.1-.1.2-.2.2-.7.6-1.5 1.1-2.4 1.4l-.3.2c-.5.2-1.1 0-1.3-.4-.3-.9-.5-1.8-.7-2.7-.1-.4-.1-.8-.2-1.3-.2-1.3-.2-2.6-.2-3.9 0-.3.1-.4.4-.4h.2c.7 0 1.4.1 2.1.2s1.5.3 2.2.5c.2.1.4.2.5.4.2.2.2.5.2.7 0 1.5.2 2.8.1 4 .1.4-.1.8-.4 1.1zm2-5.8-.9-.5c-.2-.1-.4-.4-.4-.6l-.7-5.2v-.3c0-.1 0-.1 0-.2.1-.1.2-.1.2-.1.6.2 1.2.3 1.7.6.5.2.9.4 1.3.7.1.1.2.3.2.4.1.6.2 1.2.3 1.8 0 .4.1.7.2 1.1-.1 0-.1.1-.2.1-.3.2-.4.4-.4.7s.2.6.4.7c.1 0 .1.1.2.1l-.2.1-1.6.6zm.5.2 1.4-.5.2-.1-.2.2-.7.8c-.2-.1-.4-.2-.7-.4zm.8.5.5-.6.1-.1-.1.2-.3.7zm1.1.3c0 .1-.1.2-.2.2h-.1l-.2-.1s-.1-.1-.2-.1l.2-.4.2-.4.2-.5.1.8c.1.2.1.3 0 .5zm.5-6.3c.7.3 1.4.6 2 1 .5 1.2.9 2.4 1.2 3.6.2 1.1.2 2.2.2 3.3 0 .3 0 .7.1 1-1.1-.7-2.1-1-3-1.7-.2-.9-.4-1.8-.4-2.8.3-.3.3-.9 0-1.2 0 0-.1-.1-.1-.1-.1-.6-.1-1.1-.1-1.5s-.2-1.1-.2-1.6c0 0 0-.1.1-.1zm.5-9.5c0 .1-.1.1-.1.2s0 .1 0 .1-.2-.1-.3-.1-.4 0-.4-.1c-.1-.4-.1-.9 0-1.3 0-.1.1-.2.2-.1s.2.1.3.2l.2.1h.1v.6c0 .1.1.2.1.3 0 0 0 .1-.1.1z" fill="#fff" fill-rule="evenodd"/><path clip-rule="evenodd" d="m91.2 50.2c11 0 19.8 8.9 19.8 19.9s-8.9 19.8-19.9 19.8-19.8-8.9-19.8-19.9c0-11 8.9-19.8 19.9-19.8z" fill="#212b47" fill-rule="evenodd"/><path d="m98.3 72.9c-.5 0-.8.1-1.2.1l-3.4-3.4 2.9-2.9 3.7-1.3 2.7-4.4c.1-.2.1-.6 0-.7l-1.4-1.4c-.2-.2-.6-.2-.8-.1l-4.5 2.6-1.4 3.8-3 2.8-3.2-3.4c0-.4.1-.7.1-1.2 0-3.1-3-5.3-5.9-4.6l1.8 1.8c1 1 1 2.4 0 3.3-1 1-2.4 1-3.3 0l-1.9-1.7c-1 3.4 2.3 6.8 5.8 5.7l3.4 3.4-1.4 1.4c-.8-.2-1.7 0-2.3.6l-4.9 4.9c-1 1-1.1 2.4-.2 3.3 1 1.1 2.5 1.1 3.4.1l5-5c.6-.6.8-1.5.6-2.3l1.4-1.4 3.4 3.4c-.1.4-.1.8-.1 1.2 0 3.1 3 5.3 5.9 4.6l-1.8-1.8c-1-1-1-2.4 0-3.3 1-1 2.4-1 3.3 0l1.8 1.8c1-3-1.4-5.9-4.5-5.9z" fill="#fff"/></svg>