<svg enable-background="new 0 0 168 92.7" viewBox="0 0 168 92.7" xmlns="http://www.w3.org/2000/svg"><g fill="#fff"><path d="m82.7 77.8c21.5 0 38.9-17.4 38.9-38.9s-17.4-38.9-38.9-38.9-38.9 17.4-38.9 38.9c.1 21.5 17.4 38.8 38.9 38.9zm0-74.8c19.8 0 35.9 16.1 35.9 35.9s-16.1 35.9-35.9 35.9-35.9-16.1-35.9-35.9 16.1-35.9 35.9-35.9z"/><path d="m82.7 71.8c18.2 0 32.9-14.7 32.9-32.9s-14.7-32.9-32.9-32.9-32.9 14.7-32.9 32.9c0 18.1 14.7 32.9 32.9 32.9zm-24.1-24.6-4.1 1.7c-1-2.7-1.6-5.6-1.7-8.5h7.4v-3h-7.4c.1-2.9.7-5.8 1.7-8.5l4.1 1.7 1.1-2.8-4.1-1.7c1.3-2.6 2.9-5.1 4.8-7.2l5.2 5.2 2.1-2.1-5.2-5.2c2.2-2 4.6-3.6 7.2-4.8l1.7 4.1 2.8-1.1-1.7-4.1c2.7-1 5.6-1.6 8.5-1.7v7.4h3v-7.5c2.9.1 5.8.7 8.5 1.7l-1.7 4.1 2.8 1.1 1.7-4.1c2.6 1.3 5.1 2.9 7.2 4.8l-5 5.3 2.1 2.1 5.2-5.2c2 2.2 3.6 4.6 4.8 7.2l-4.1 1.7 1.1 2.8 4.1-1.7c1 2.7 1.6 5.6 1.7 8.5h-7.4v3h7.4c-.1 2.9-.7 5.8-1.7 8.5l-4.1-1.7-1.1 2.8 4.1 1.7c-1.1 2.4-2.6 4.6-4.3 6.6h-15.3c-.2-1.1-.8-2.2-1.5-3.1l-2.7-29.9c-.2-1.7-1.7-3-3.4-2.8-1.5.1-2.7 1.3-2.8 2.8l-2.7 29.9c-.7.9-1.2 2-1.5 3.1h-15.4c-1.7-2-3.2-4.2-4.3-6.6l4.1-1.7zm24.1 8.1c1.9 0 3.6 1.2 4.2 3h-8.4c.6-1.8 2.3-3 4.2-3zm-2.6-2.5 2.5-27.3c0-.1.1-.1.2-.1s.1.1.1.1l2.5 27.3c-1.8-.6-3.6-.6-5.3 0zm-17.1 8.5h39.4c-11.2 10-28.2 10-39.4 0z"/><path d="m120.1 56.8v32.9h-3v-19.4h-9v19.4h-3v-12h-9v12h-3v-6h-9v6h-3v3h47.9v-35.9zm-9 16.5h3v16.5h-3zm-11.9 7.5h3v9h-3zm-12 5.9h3v3h-3zm38.9 3h-3v-29.9h3z"/><path d="m57.7 84.6-3.8-12.8h-17.6v3h15.3l5.1 17.1 5.8-9.7h9.6v-3h-11.2z"/><path d="m42.3 80.8h3v3h-3z"/><path d="m36.3 80.8h3v3h-3z"/><path d="m48.3 80.8h3v3h-3z"/></g></svg>