<svg enable-background="new 0 0 168 92.7" viewBox="0 0 168 92.7" xmlns="http://www.w3.org/2000/svg"><g fill="#fff" transform="translate(-8 -2.025)"><path d="m118.6 54.9-16.1-8.5c2-1.6 3.6-3.8 4.5-6.2l4.2-2.2c1.6-.8 2.6-2.4 2.6-4.2v-1.1c0-2.5-2-4.6-4.5-4.6-.1 0-.1 0-.2 0h-1.5v-5.6l5.1-6.5c1.6-2 1.2-4.9-.8-6.5-.3-.3-.7-.5-1.1-.6l-13.1-5.6c-4.7-2-10-2-14.7 0l-13.2 5.6c-2.3 1-3.4 3.7-2.5 6 .1.4.4.8.6 1.1l5.1 6.5v5.6h-1.5c-2.5 0-4.6 2-4.6 4.5v.2 1.2c0 1.8 1 3.4 2.6 4.2l4.2 2.2c.8 2.5 2.4 4.7 4.5 6.2l-16.1 8.5c-5.4 3-8.7 8.7-8.7 14.9v24.8h74.4v-24.8c0-6.4-3.5-12.2-9.2-15.1zm-10.4-2-9.6 7.1-5.3-7.4c.6-.2 1.2-.5 1.7-.9l4.6-3.3zm-13.1 7.4-2.2 3.4h-4.5l-2.3-3.4 4.5-6.4zm14.1-29.1c.8 0 1.5.6 1.6 1.4v.2 1.2c0 .6-.4 1.2-.9 1.4l-2.2 1.1v-5.3zm-37.8 4.2c-.5-.3-.9-.8-.9-1.4v-1.2c0-.8.6-1.5 1.4-1.6h.2 1.6v5.3zm-.7-21.4c-.5-.7-.4-1.6.3-2.1.2-.2.2-.2.3-.2l13.2-5.6c3.9-1.7 8.3-1.7 12.2 0l13.2 5.6c.8.3 1.1 1.2.8 2 0 .1-.1.2-.2.3l-5.3 6.4h-29.3zm32.1 9.5-.5.6c-2 2.5-5.1 4-8.4 4h-7.1c-3.5 0-6.8-1.7-8.8-4.6zm-26.2 13v-9.6c2.6 2.8 6.3 4.3 10.1 4.3h7.1c4.1 0 7.9-1.8 10.5-5v10.1c0 3-1.5 5.9-4 7.6l-7.2 5.1c-1.6 1.1-3.7 1.1-5.3 0l-7.3-5.1c-2.4-1.7-3.8-4.5-3.9-7.4zm4.8 11.9 4.6 3.3c.6.3 1.1.7 1.7.9l-5.2 7.4-9.6-7.1zm-9.4 43.3v-15.5h-3.1v15.5h-12.4v-21.7c0-5.2 2.9-10 7.4-12.4l6-3.3 3.9 2.9 7.2 34.5zm5.6-31.5 5.6 4.2.9-1.4 1.7 2.6-3.3 19.1zm7.1 31.5 4.2-24.8h3.6l4.2 24.8zm10.7-26.1 1.7-2.6.9 1.4 5.6-4.2-5.1 24.6zm29.3 26.1h-12.4v-15.5h-3.1v15.5h-9l7.1-34.3 3.9-2.9 6 3.3c4.6 2.5 7.4 7.2 7.4 12.4z"/><path d="m92.8 8h-4.5c-2.5 0-4.6 2-4.6 4.5v.2c0 2.5 2 4.6 4.5 4.6h.2 4.5c2.5 0 4.6-2 4.6-4.5 0-.1 0-.1 0-.2 0-2.5-2-4.6-4.5-4.6-.1 0-.2 0-.2 0zm1.2 5.5c-.3.4-.7.6-1.2.6h-4.5c-.8 0-1.5-.6-1.6-1.4 0-.1 0-.1 0-.2 0-.8.6-1.5 1.4-1.6h.2 4.5c.8 0 1.5.6 1.6 1.4v.2c-.1.5-.2.8-.4 1z"/></g></svg>